<?xml version="1.0" encoding="utf-8"?>
<!-- Generator: Adobe Illustrator 23.0.2, SVG Export Plug-In . SVG Version: 6.00 Build 0)  -->
<svg version="1.1" id="Layer_1" xmlns="http://www.w3.org/2000/svg" xmlns:xlink="http://www.w3.org/1999/xlink" x="0px" y="0px"
	 viewBox="0 0 100 100" style="enable-background:new 0 0 100 100;" xml:space="preserve">
<style type="text/css">
	.st0{fill:#FFA815;}
	.st1{fill:#F68410;}
	.st2{fill:#FFCC30;}
	.st3{fill:#757575;}
	.st4{font-family:'Lato-Regular';}
	.st5{font-size:22px;}
</style>
<g>
	<path class="st0" d="M64.5,35.8L50.6,9.9c-0.4-0.8-1.6-0.8-2,0.1l-3.4,8.7L35.1,0.6c-0.5-0.9-1.9-0.7-2,0.4l-8.2,56.5
		c-0.2,1,1.1,1.7,1.9,0.9l13.3-13l23.9-8C64.5,37.1,64.8,36.4,64.5,35.8z"/>
	<polygon class="st1" points="45.3,18.5 27.9,59.6 69.9,55.7 	"/>
	<path class="st2" d="M75.4,57.8l-5.8-41.6c-0.1-0.9-1.2-1.3-1.9-0.6L24.6,57.8l-0.1,0.1c-0.2,0.2-0.2,0.4-0.3,0.6l24.9,14.2
		c0.7,0.4,1.5,0.4,2.2,0l24.3-13.8L75.4,57.8z"/>
</g>
<text transform="matrix(1 0 0 1 11.6821 95.9854)" class="st3 st4 st5">Firebase</text>
</svg>
