<?xml version="1.0" encoding="utf-8"?>
<!-- Generator: Adobe Illustrator 23.0.2, SVG Export Plug-In . SVG Version: 6.00 Build 0)  -->
<svg version="1.1" id="Layer_1" xmlns="http://www.w3.org/2000/svg" xmlns:xlink="http://www.w3.org/1999/xlink" x="0px" y="0px"
	 viewBox="0 0 200 100" style="enable-background:new 0 0 200 100;" xml:space="preserve">
<style type="text/css">
	.st0{fill:#413000;}
	.st1{fill:#F05133;}
</style>
<g>
	<path class="st0" d="M134.1,37c1.4,1.8,2.9,4.3,2.9,8c0,8.8-6.9,13.9-16.8,13.9c-2.5,0-4.8-0.3-6.2-0.7l-2.6,4.2l7.7,0.5
		c13.7,0.9,21.7,1.3,21.7,11.8c0,9.1-8,14.2-21.7,14.2c-14.3,0-19.7-3.6-19.7-9.9c0-3.6,1.6-5.4,4.3-8.1c-2.6-1.1-3.5-3.1-3.5-5.2
		c0-1.7,0.9-3.3,2.3-4.8c1.4-1.5,3-3,4.9-4.7c-3.9-1.9-6.8-6-6.8-11.8c0-9.1,6-15.3,18.1-15.3c3.4,0,5.4,0.3,7.3,0.8h15.4v6.7
		L134.1,37z M110.7,73c-1,1.3-2.1,2.6-2.1,4.2c0,3.2,4,4.1,9.6,4.1c4.6,0,10.8-0.3,10.8-4.6c0-2.5-3-2.7-6.8-2.9L110.7,73z
		 M119.4,36.8c-4.3,0-7.6,2.1-7.6,7.3c0,3.9,2.1,6.6,7.3,6.6c4.4,0,7.4-2.6,7.4-6.7C126.6,39.2,123.9,36.8,119.4,36.8z"/>
	<path class="st0" d="M145,70.1v-6.2l4-0.6c1.1-0.2,1.3-0.4,1.3-1.6V38.6c0-0.9-0.2-1.4-1-1.7l-4.3-1.5l0.9-6.4h16.3v32.8
		c0,1.3,0.1,1.4,1.3,1.6l4,0.6v6.2H145z M155.2,22.7c-4.5,0-7.1-2.6-7.1-7.1c0-4.5,2.6-6.9,7.1-6.9c4.6,0,7.2,2.4,7.2,6.9
		C162.4,20.1,159.8,22.7,155.2,22.7z"/>
	<path class="st0" d="M198.7,67.1c-3.4,1.7-8.4,3.2-12.9,3.2c-9.4,0-12.9-3.8-12.9-12.7V36.8c0-0.5,0-0.8-0.6-0.8h-5.5v-7
		c6.9-0.8,9.7-4.3,10.6-12.9h7.5v11.2c0,0.6,0,0.8,0.6,0.8h11.1V36h-11.8v18.9c0,4.7,1.1,6.5,5.4,6.5c2.2,0,4.5-0.6,6.4-1.3
		L198.7,67.1z"/>
	<g>
		<path class="st1" d="M81.8,46.4L45.7,10.3c-2.1-2.1-5.4-2.1-7.5,0l-7.5,7.5l9.5,9.5c2.2-0.7,4.7-0.2,6.5,1.5
			c1.8,1.8,2.3,4.3,1.5,6.5l9.2,9.2c2.2-0.8,4.8-0.3,6.5,1.5c2.5,2.5,2.5,6.5,0,9c-2.5,2.5-6.5,2.5-9,0c-1.9-1.9-2.3-4.6-1.4-6.9
			L45,39.5L45,62c0.6,0.3,1.2,0.7,1.7,1.2c2.5,2.5,2.5,6.5,0,9c-2.5,2.5-6.5,2.5-9,0c-2.5-2.5-2.5-6.5,0-9c0.6-0.6,1.3-1.1,2.1-1.4
			V39.1c-0.8-0.3-1.5-0.8-2.1-1.4c-1.9-1.9-2.3-4.6-1.4-6.9L27,21.4L2.2,46.2c-2.1,2.1-2.1,5.5,0,7.5l36.1,36.1
			c2.1,2.1,5.4,2.1,7.5,0l35.9-35.9C83.9,51.8,83.9,48.4,81.8,46.4z"/>
	</g>
</g>
</svg>
