<?xml version="1.0" encoding="utf-8"?>
<!-- Generator: Adobe Illustrator 23.0.2, SVG Export Plug-In . SVG Version: 6.00 Build 0)  -->
<svg version="1.1" id="Layer_1" xmlns="http://www.w3.org/2000/svg" xmlns:xlink="http://www.w3.org/1999/xlink" x="0px" y="0px"
	 viewBox="0 0 128 128" enable-background="new 0 0 128 128" xml:space="preserve">
<path fill="#0868AC" d="M27.758,20.421c-7.352,10.565-6.437,24.312-0.82,35.54l0.411,0.798l0.263,0.506l0.164,0.291l0.293,0.524
	c0.174,0.307,0.353,0.612,0.536,0.919l0.306,0.504c0.203,0.326,0.41,0.65,0.622,0.973l0.265,0.409
	c0.293,0.437,0.592,0.872,0.901,1.301l0.026,0.033l0.152,0.205c0.267,0.368,0.542,0.732,0.821,1.093l0.309,0.393
	c0.249,0.313,0.502,0.623,0.759,0.934l0.29,0.346c0.345,0.406,0.698,0.812,1.057,1.208l0.021,0.022l0.041,0.045
	c0.351,0.383,0.71,0.758,1.075,1.133l0.344,0.347c0.282,0.284,0.569,0.563,0.858,0.841l0.351,0.334
	c0.387,0.364,0.777,0.722,1.176,1.07l0.018,0.016l0.205,0.174c0.351,0.305,0.708,0.605,1.068,0.902l0.442,0.353
	c0.294,0.235,0.591,0.468,0.89,0.696l0.477,0.361c0.33,0.243,0.663,0.482,0.999,0.717l0.363,0.258l0.101,0.072
	c0.318,0.22,0.645,0.431,0.97,0.642l0.42,0.28c0.5,0.315,1.007,0.628,1.519,0.93l0.42,0.237c0.377,0.217,0.756,0.431,1.14,0.639
	l0.631,0.326l0.816,0.424l0.188,0.091l0.334,0.161c0.427,0.204,0.858,0.405,1.293,0.599l0.273,0.122
	c0.498,0.218,1.001,0.427,1.508,0.628l0.368,0.144c0.469,0.182,0.945,0.359,1.423,0.527l0.179,0.062
	c0.524,0.184,1.054,0.353,1.587,0.52l0.383,0.114c0.542,0.164,1.079,0.358,1.638,0.462c35.553,6.483,45.88-21.364,45.88-21.364
	c-8.674,11.3-24.069,14.28-38.656,10.962c-0.553-0.125-1.089-0.298-1.628-0.456l-0.406-0.124c-0.526-0.161-1.049-0.33-1.568-0.51
	l-0.215-0.077c-0.465-0.164-0.924-0.336-1.382-0.513l-0.388-0.152c-0.501-0.198-1-0.405-1.492-0.62l-0.298-0.133
	c-0.423-0.191-0.842-0.384-1.259-0.585L55.856,66.9c-0.327-0.159-0.65-0.328-0.974-0.495l-0.649-0.341
	c-0.395-0.21-0.782-0.43-1.167-0.654l-0.394-0.219c-0.513-0.303-1.019-0.615-1.52-0.932l-0.41-0.273
	c-0.363-0.234-0.725-0.473-1.081-0.719l-0.349-0.245c-0.344-0.242-0.685-0.489-1.022-0.738l-0.453-0.343
	c-0.31-0.237-0.618-0.476-0.922-0.721l-0.411-0.33c-0.388-0.318-0.771-0.64-1.149-0.969l-0.126-0.105
	c-0.409-0.359-0.811-0.728-1.208-1.098l-0.34-0.328c-0.294-0.279-0.584-0.561-0.868-0.851l-0.34-0.34
	c-0.362-0.37-0.717-0.745-1.065-1.126l-0.053-0.057c-0.368-0.402-0.728-0.813-1.08-1.229l-0.283-0.336
	c-0.263-0.316-0.523-0.638-0.777-0.961l-0.285-0.355c-0.307-0.397-0.605-0.793-0.898-1.195
	c-8.098-11.047-11.008-26.283-4.535-38.795 M50.578,11.519c-5.316,7.65-5.028,17.893-0.88,25.983
	c0.695,1.356,1.477,2.673,2.351,3.925c0.796,1.143,1.68,2.501,2.737,3.418c0.383,0.422,0.784,0.834,1.193,1.238l0.314,0.311
	c0.397,0.385,0.801,0.764,1.218,1.132l0.05,0.043l0.012,0.012c0.462,0.405,0.939,0.794,1.423,1.178l0.323,0.252
	c0.486,0.372,0.981,0.738,1.489,1.087l0.043,0.033l0.68,0.447l0.322,0.213c0.363,0.233,0.73,0.459,1.104,0.676l0.156,0.092
	c0.322,0.185,0.648,0.367,0.975,0.545l0.347,0.18l0.682,0.354l0.103,0.047c0.469,0.23,0.941,0.453,1.424,0.663l0.314,0.13
	c0.386,0.163,0.775,0.323,1.167,0.473l0.5,0.184c0.356,0.132,0.712,0.253,1.072,0.373l0.484,0.155
	c0.511,0.158,1.017,0.359,1.549,0.448c27.45,4.547,33.787-16.588,33.787-16.588c-5.712,8.228-16.775,12.153-28.58,9.089
	c-0.524-0.138-1.042-0.288-1.555-0.449l-0.467-0.151c-0.365-0.117-0.728-0.243-1.087-0.374l-0.491-0.183
	c-0.394-0.152-0.784-0.309-1.171-0.473l-0.315-0.133c-0.485-0.211-0.962-0.434-1.432-0.666l-0.718-0.365l-0.414-0.213
	c-0.306-0.166-0.61-0.338-0.909-0.514l-0.217-0.123c-0.372-0.217-0.738-0.44-1.1-0.672l-0.332-0.221l-0.712-0.472
	c-0.506-0.349-0.999-0.714-1.484-1.085l-0.334-0.264c-5.167-4.079-9.263-9.655-11.21-15.977c-2.041-6.557-1.601-13.917,1.935-19.891
	 M69.771,4.868c-3.134,4.612-3.442,10.341-1.267,15.435c2.293,5.407,6.992,9.648,12.477,11.66l0.682,0.235l0.3,0.096
	c0.323,0.102,0.644,0.22,0.978,0.282c15.157,2.929,19.268-7.777,20.362-9.354c-3.601,5.185-9.653,6.43-17.079,4.627
	c-0.586-0.142-1.231-0.354-1.796-0.555c-0.725-0.259-1.439-0.553-2.134-0.886c-1.318-0.634-2.575-1.402-3.741-2.282
	c-6.645-5.042-10.772-14.659-6.436-22.492"/>
<path fill="#131B28" d="M66.359,96.295h-4.226c-0.234,0-0.467,0.188-0.517,0.417l-1.5,6.94l-1.5,6.94
	c-0.049,0.229-0.282,0.417-0.516,0.417h-2.991c-2.959,0-2.617-2.047-2.011-4.851l0.018-0.085l0.066-0.354l0.012-0.066l0.135-0.72
	l0.145-0.771l0.154-0.785l0.682-3.332l0.683-3.332c0.047-0.23-0.107-0.419-0.341-0.419h-4.337c-0.234,0-0.466,0.188-0.514,0.418
	l-0.933,4.424l-0.932,4.425l-0.002,0.006l-0.086,0.412c-1.074,4.903-0.79,9.58,5.048,9.727l0.17,0.003h9.163
	c0.234,0,0.467-0.188,0.516-0.417l1.976-9.289l1.976-9.29C66.746,96.483,66.594,96.296,66.359,96.295z M21.103,96.246h-4.64
	c-0.235,0-0.469,0.188-0.521,0.416l-0.44,1.942l-0.44,1.942c-0.051,0.229,0.098,0.416,0.333,0.416h4.676
	c0.235,0,0.468-0.188,0.518-0.417l0.425-1.941l0.425-1.941C21.488,96.434,21.338,96.246,21.103,96.246z M19.757,102.29H15.08
	c-0.234,0-0.469,0.188-0.521,0.416l-0.657,2.91l-0.656,2.909l-0.183,0.834l-0.631,2.97l-0.63,2.971
	c-0.049,0.229-0.15,0.599-0.225,0.821c0,0-0.874,2.6-2.343,2.57l-0.184-0.004l-1.271-0.023H7.778
	c-0.234-0.003-0.469,0.18-0.524,0.407l-0.485,2.039l-0.484,2.038c-0.055,0.228,0.093,0.416,0.326,0.42
	c0.833,0.01,2.699,0.031,3.828,0.031c3.669,0,5.604-2.033,6.843-7.883l1.451-6.714l1.361-6.297
	C20.143,102.478,19.991,102.29,19.757,102.29z M105.874,100.716l-0.194-0.801l-0.191-0.82l-0.097-0.414
	c-0.38-1.477-1.495-2.328-3.917-2.328l-3.77-0.004l-3.472-0.005h-3.907c-0.234,0-0.466,0.188-0.515,0.417l-0.173,0.816l-0.204,0.964
	l-0.057,0.271l-1.759,8.24l-1.67,7.822c-0.05,0.23-0.066,0.512-0.038,0.626c0.028,0.115,0.479,0.209,0.713,0.209h3.524
	c0.235,0,0.532-0.042,0.66-0.094s0.317-0.513,0.364-0.742l0.626-3.099l0.627-3.1l0.001-0.005l0.084-0.413l0.76-3.56l0.671-3.144
	c0.05-0.229,0.281-0.416,0.515-0.417l11.089-0.005C105.779,101.132,105.927,100.945,105.874,100.716z M120.149,93.476l-0.854,0.003
	h-3.549c-0.235,0-0.536,0.159-0.667,0.353l-7.849,11.498c-0.132,0.194-0.283,0.166-0.335-0.062l-0.578-2.533
	c-0.052-0.229-0.287-0.416-0.522-0.416h-5.045c-0.235,0-0.374,0.184-0.31,0.409l2.261,7.921c0.064,0.226,0.069,0.596,0.011,0.824
	l-0.985,3.833c-0.059,0.228,0.085,0.413,0.32,0.413h4.987c0.234,0,0.474-0.186,0.532-0.413l0.986-3.833
	c0.058-0.229,0.221-0.567,0.363-0.755l12.742-16.911c0.142-0.188,0.065-0.341-0.169-0.339L120.149,93.476z M80.063,103.395v-0.004
	c-0.029,0.254-0.264,0.441-0.499,0.441h-6.397c-0.222,0-0.334-0.15-0.301-0.336l0.006-0.015l-0.004,0.002l0.003-0.021l0.029-0.109
	c0.611-1.624,1.855-2.69,4.194-2.69C79.728,100.662,80.242,101.948,80.063,103.395z M78.186,96.011
	c-8.211,0-10.157,4.984-11.249,10.015c-1.091,5.128-0.998,9.921,7.5,9.921h1.03l0.256-0.001h0.06l1.02-0.003h0.018
	c2.244-0.009,4.495-0.026,5.406-0.033c0.233-0.004,0.461-0.191,0.509-0.42l0.344-1.681l0.067-0.327l0.41-2.006
	c0.047-0.229-0.106-0.418-0.341-0.418h-7.639c-3.039,0-3.941-0.807-3.608-3.181H84.18l-0.001,0.001l0.008-0.001
	c0.194-0.003,0.374-0.137,0.445-0.315l0.029-0.106l-0.001,0.001C86.473,100.618,85.953,96.012,78.186,96.011z M39.376,103.369
	l-0.116,0.409v0.001l-0.922,3.268l-0.922,3.267c-0.063,0.227-0.308,0.411-0.543,0.411h-4.88c-3.702,0-4.604-2.896-3.702-7.166
	c0.901-4.368,2.668-7.083,6.312-7.358C39.583,95.825,40.579,99.327,39.376,103.369z M42.724,110.474c0,0,2.301-5.588,2.823-8.814
	c0.713-4.319-1.45-10.585-9.804-10.585c-8.306,0-11.914,5.981-13.29,12.484c-1.376,6.55,0.427,12.293,8.686,12.246l6.516-0.024
	l6.089-0.022c0.234-0.002,0.474-0.188,0.534-0.414l1.061-4.046c0.059-0.228-0.084-0.414-0.319-0.416l-1.017-0.006l-1.017-0.006
	c-0.199-0.001-0.313-0.131-0.289-0.302L42.724,110.474z M83.844,106.733c0,0.155-0.125,0.281-0.28,0.281
	c-0.154,0-0.28-0.126-0.28-0.281c0-0.154,0.125-0.279,0.28-0.279S83.844,106.579,83.844,106.733z"/>
</svg>
