<?xml version="1.0" encoding="utf-8"?>
<!-- Generator: Adobe Illustrator 23.0.2, SVG Export Plug-In . SVG Version: 6.00 Build 0)  -->
<svg version="1.1" xmlns="http://www.w3.org/2000/svg" xmlns:xlink="http://www.w3.org/1999/xlink" x="0px" y="0px"
	 viewBox="0 0 141.732 141.732" enable-background="new 0 0 141.732 141.732" xml:space="preserve">
<g id="Layer_1">
	<g id="code_x5F_html5">
	</g>
	<g>
		<polygon fill="#E6A329" points="120.935,28.014 70.866,28.014 70.866,28.014 20.798,28.014 30.181,129.81 70.866,141.345 
			70.866,141.345 70.866,141.345 70.866,141.345 70.866,141.345 111.537,129.81 		"/>
		<polygon fill="#F1BF22" points="70.866,36.307 70.866,132.724 70.866,132.724 103.812,123.384 111.836,36.307 		"/>
		<polygon fill="#FFFFFF" points="97.078,48.798 46.403,48.798 42.881,86.913 42.956,86.674 86.001,86.674 84.597,102.796 
			70.866,106.755 56.926,102.736 56.089,92.979 43.434,92.979 45.242,112.478 70.866,119.754 96.49,112.478 100.017,74.213 
			54.341,74.213 54.923,61.453 86.627,61.453 87.093,68.756 99.862,68.756 		"/>
		<g>
			<path fill="#EBEBEB" d="M70.866,48.798H46.403l-3.522,38.115l0.075-0.239h27.91V74.213H56.103l0.582-12.76h14.181V48.798z
				 M56.089,92.979H43.434l1.808,19.498l25.624,7.261v-12.984l-13.941-4.018L56.089,92.979z"/>
		</g>
		<g>
			<polygon points="61.122,12.999 52.217,12.999 52.217,19.394 61.122,19.394 65.889,19.394 67.503,19.394 67.503,0.388 
				61.122,0.388 			"/>
			<path d="M89.516,0.485H73.984c0,0,0,3.341,0,6.655c2.076,2.078,3.161,3.073,6.167,6.079c-1.758,0-6.167,0.006-6.167,0.006v6.071
				h15.532v-6.073L83.312,7.14h6.204V0.485z"/>
		</g>
	</g>
</g>
<g id="Layer_2">
	<g>
	</g>
	<g>
	</g>
	<g>
	</g>
	<g>
	</g>
	<g>
	</g>
	<g>
	</g>
	<g>
	</g>
</g>
</svg>
