<?xml version="1.0" encoding="utf-8"?>
<!-- Generator: Adobe Illustrator 23.0.1, SVG Export Plug-In . SVG Version: 6.00 Build 0)  -->
<svg version="1.1" id="Capa_1" xmlns="http://www.w3.org/2000/svg" xmlns:xlink="http://www.w3.org/1999/xlink" x="0px" y="0px"
	 viewBox="0 0 99.4 99.8" style="enable-background:new 0 0 99.4 99.8;" xml:space="preserve">
<style type="text/css">
	.st0{fill:#575754;}
</style>
<g>
	<path class="st0" d="M93.9,5.6c-3.6-3.6-8-5.5-13.2-5.5H18.7c-5.1,0-9.5,1.8-13.2,5.5s-5.5,8-5.5,13.2v62.1c0,5.1,1.8,9.5,5.5,13.2
		c3.6,3.6,8,5.5,13.2,5.5h62.1c5.1,0,9.5-1.8,13.2-5.5c3.6-3.6,5.5-8,5.5-13.2V18.7C99.4,13.6,97.6,9.2,93.9,5.6z M30.3,83.3H15.4
		V38.4h14.9V83.3L30.3,83.3z M29,30.1c-1.6,1.5-3.6,2.2-6.1,2.2h-0.1c-2.4,0-4.4-0.7-6-2.2c-1.5-1.5-2.3-3.3-2.3-5.5
		c0-2.2,0.8-4.1,2.4-5.6c1.6-1.5,3.6-2.2,6.1-2.2c2.5,0,4.5,0.7,6,2.2c1.5,1.5,2.3,3.3,2.3,5.6C31.3,26.8,30.5,28.6,29,30.1z
		 M84.1,83.3H69.1v-24c0-6.8-2.5-10.1-7.5-10.1c-1.9,0-3.5,0.5-4.8,1.6S54.6,53,54,54.6c-0.3,0.8-0.5,2-0.5,3.6v25.1H38.6
		c0.1-27.1,0.1-42,0-44.9h14.9v6.3c3.1-4.9,7.6-7.4,13.4-7.4c5.2,0,9.3,1.7,12.5,5.1c3.1,3.4,4.7,8.4,4.7,15.1L84.1,83.3L84.1,83.3
		L84.1,83.3z"/>
</g>
</svg>
