<?xml version="1.0" encoding="utf-8"?>
<!-- Generator: Adobe Illustrator 23.0.2, SVG Export Plug-In . SVG Version: 6.00 Build 0)  -->
<svg version="1.1" id="Layer_1" xmlns="http://www.w3.org/2000/svg" xmlns:xlink="http://www.w3.org/1999/xlink" x="0px" y="0px"
	 viewBox="0 0 2500 1733" enable-background="new 0 0 2500 1733" xml:space="preserve">
<path fill="none" d="M0,0.104h2500v1732.792H0V0.104z"/>
<g>
	<path fill="#5D87A1" d="M626.066,1537.407h-92.745c-3.28-156.546-12.312-303.719-27.08-441.626h-0.824l-141.205,441.626h-70.611
		l-140.362-441.626h-0.806c-10.412,132.405-16.972,279.614-19.696,441.626H48.2c5.448-197.013,19.14-381.714,41.023-554.12h114.95
		l133.785,407.162h0.824l134.61-407.162h109.985C607.464,1185.228,621.693,1369.947,626.066,1537.407 M1028.282,1128.578
		c-37.761,204.916-87.583,353.81-149.413,446.751c-48.173,71.543-100.953,107.351-158.428,107.351
		c-15.323,0-34.23-4.624-56.632-13.8v-49.41c10.95,1.577,23.8,2.473,38.567,2.473c26.847,0,48.424-7.384,64.876-22.187
		c19.678-18.029,29.517-38.299,29.517-60.719c0-15.377-7.67-46.811-22.976-94.411L672.017,1128.56h91.114l73.049,236.387
		c16.416,53.676,23.262,91.15,20.52,112.494c39.947-106.688,67.851-223.017,83.748-348.899h87.834V1128.578L1028.282,1128.578z"/>
	<path fill="#F8981D" d="M2262.816,1537.407h-263.448v-554.12h88.623v485.91h174.826V1537.407z M1930.405,1550.794l-101.867-50.27
		c9.032-7.42,17.671-15.448,25.449-24.75c43.299-50.862,64.894-126.079,64.894-225.706c0-183.321-71.938-275.026-215.866-275.026
		c-70.576,0-125.631,23.262-165.005,69.805c-43.263,50.897-64.859,125.846-64.859,224.935c0,97.404,19.14,168.858,57.439,214.182
		c35.037,41.059,87.852,61.615,158.481,61.615c26.345,0,50.521-3.226,72.547-9.731l132.62,77.207L1930.405,1550.794z
		 M1600.413,1426.526c-22.438-36.094-33.657-94.053-33.657-173.966c0-139.52,42.385-209.361,127.244-209.361
		c44.356,0,76.866,16.703,97.655,50.037c22.402,36.148,33.675,93.587,33.675,172.389c0,140.667-42.421,211.01-127.226,211.01
		C1653.73,1476.652,1621.22,1460.003,1600.413,1426.526 M1434.531,1383.818c0,46.991-17.241,85.54-51.686,115.738
		c-34.481,30.073-80.719,45.145-138.66,45.145c-54.195,0-106.742-17.312-157.603-51.758l23.818-47.582
		c43.765,21.918,83.39,32.815,118.964,32.815c33.388,0,59.482-7.402,78.407-22.079c18.907-14.732,30.18-35.395,30.18-61.525
		c0-32.922-22.958-61.059-65.073-84.626c-38.836-21.327-116.509-65.916-116.509-65.916c-42.098-30.682-63.174-63.622-63.174-117.889
		c0-44.912,15.717-81.167,47.17-108.749c31.488-27.689,72.117-41.489,121.921-41.489c51.435,0,98.193,13.782,140.309,41.059
		l-21.363,47.6c-36.023-15.305-71.579-22.958-106.652-22.958c-28.406,0-50.342,6.828-65.593,20.538
		c-15.377,13.656-24.857,31.13-24.857,52.564c0,32.761,23.442,61.256,66.704,85.289c39.356,21.363,118.964,66.722,118.964,66.722
		C1412.971,1297.346,1434.531,1329.981,1434.531,1383.818"/>
	<path fill="#5D87A1" d="M2374.074,797.69c-53.586-1.362-95.074,4.032-129.896,18.764c-10.054,4.014-26.04,4.014-27.438,16.721
		c5.43,5.377,6.057,14.051,10.771,21.47c8.029,13.388,22.026,31.399,34.804,40.79c14.033,10.753,28.119,21.398,42.887,30.772
		c26.04,16.112,55.557,25.485,80.934,41.542c14.785,9.337,29.481,21.416,44.284,31.47c7.276,5.359,11.936,14.051,21.38,17.402
		v-2.043c-4.731-6.022-6.075-14.732-10.717-21.434l-20.108-19.391c-19.427-26.094-43.568-48.872-69.608-67.583
		c-21.434-14.767-68.317-34.84-77.009-59.536l-1.362-1.362c14.732-1.38,32.205-6.721,46.202-10.825
		c22.778-6.004,43.55-4.642,66.919-10.646c10.753-2.688,21.417-6.057,32.205-9.373v-6.04
		c-12.115-12.061-20.753-28.083-33.496-39.481c-34.087-29.445-71.651-58.245-110.469-82.35
		c-20.789-13.423-47.528-22.062-69.662-33.478c-7.975-4.032-21.416-6.022-26.112-12.724c-12.007-14.732-18.764-34.123-27.474-51.561
		c-19.355-36.793-38.155-77.619-54.858-116.527c-12.079-26.094-19.427-52.152-34.159-76.293
		C1993.095,282.173,1918.164,213.247,1803,145.592c-24.75-14.086-54.195-20.09-85.648-27.474l-50.234-2.652
		c-10.717-4.695-21.452-17.438-30.807-23.46c-38.209-24.087-136.581-76.293-164.682-7.366
		c-18.101,43.568,26.775,86.4,42.188,108.498c11.38,15.341,26.13,32.797,34.087,50.216c4.713,11.38,6.04,23.459,10.753,35.485
		c10.717,29.463,20.735,62.242,34.822,89.734c7.348,14.015,15.359,28.746,24.75,41.435c5.376,7.42,14.732,10.699,16.775,22.796
		c-9.337,13.334-10.072,33.46-15.431,50.199c-24.087,75.647-14.678,169.36,19.463,224.953
		c10.681,16.739,36.166,53.586,70.253,39.464c30.18-12.043,23.495-50.199,32.169-83.658c1.989-8.083,0.681-13.388,4.695-18.692
		v1.308c9.337,18.728,18.764,36.775,27.42,55.557c20.771,32.779,56.937,66.937,87.063,89.644
		c16.04,12.115,28.746,32.833,48.837,40.234v-2.007h-1.326c-4.068-6.004-10.018-8.692-15.359-13.352
		c-12.079-12.061-25.449-26.793-34.822-40.162c-28.065-37.51-52.905-79.035-74.948-121.885
		c-10.789-20.789-20.09-43.514-28.782-64.267c-4.05-8.011-4.05-20.09-10.771-24.123c-10.072,14.714-24.75,27.456-32.098,45.485
		c-12.742,28.836-14.068,64.303-18.8,101.186l-2.635,1.29c-21.327-5.359-28.746-27.42-36.847-46.148
		c-20.054-47.564-23.424-123.91-6.022-178.787c4.66-14.033,24.822-58.228,16.775-71.597c-4.032-12.814-17.438-20.108-24.786-30.198
		c-8.638-12.689-18.101-28.746-24.123-42.833c-16.058-37.474-24.141-78.999-41.435-116.455
		c-8.083-17.456-22.115-35.521-33.478-51.597c-12.76-18.065-26.793-30.789-36.883-52.206c-3.333-7.366-8.011-19.409-2.652-27.42
		c1.308-5.376,4.032-7.384,9.373-8.728c8.674-7.33,33.46,1.989,42.152,6.022c24.822,10.036,45.575,19.409,66.292,33.46
		c9.373,6.721,19.427,19.445,31.453,22.796h14.086c21.381,4.66,45.485,1.29,65.611,7.348c35.467,11.398,67.601,28.119,96.419,46.166
		c87.691,55.611,160.005,134.628,208.823,229.003c8.011,15.377,11.416,29.463,18.728,45.503
		c14.104,32.833,31.542,66.31,45.539,98.444c14.069,31.453,27.474,63.568,47.564,89.698c10.018,14.05,50.271,21.416,68.317,28.782
		c13.352,6.004,34.141,11.344,46.184,18.71c22.778,14.033,45.467,30.144,66.884,45.575c10.664,8.029,44.177,24.768,46.166,38.173
		 M1691.151,215.881c-9.243-0.096-18.458,1.037-27.402,3.369v1.344h1.29c5.395,10.699,14.767,18.119,21.452,27.456
		c5.394,10.735,10.072,21.381,15.359,32.098l1.29-1.326c9.445-6.685,14.14-17.402,14.14-33.478
		c-4.068-4.731-4.696-9.355-8.083-14.051C1705.255,224.591,1696.563,221.257,1691.151,215.881"/>
	<path fill="#F8981D" d="M2437.839,1537.317h13.872v-67.887h-20.807l-16.972,46.328l-18.441-46.328h-20.036v67.887h13.101v-51.65
		h0.735l19.32,51.65h9.982l19.248-51.65L2437.839,1537.317L2437.839,1537.317z M2326.098,1537.317h14.678v-56.381h19.212v-11.524
		h-53.908v11.524h19.983L2326.098,1537.317L2326.098,1537.317z"/>
</g>
</svg>
