<?xml version="1.0" encoding="utf-8"?>
<!-- Generator: Adobe Illustrator 23.0.2, SVG Export Plug-In . SVG Version: 6.00 Build 0)  -->
<svg version="1.1" id="Layer_1" xmlns="http://www.w3.org/2000/svg" xmlns:xlink="http://www.w3.org/1999/xlink" x="0px" y="0px"
	 viewBox="0 0 100 100" style="enable-background:new 0 0 100 100;" xml:space="preserve">
<style type="text/css">
	.st0{fill:#3B8070;}
	.st1{fill:#40B883;}
	.st2{fill:#34495E;}
	.st3{fill:none;stroke:#34495E;stroke-width:1.5;stroke-linecap:round;stroke-linejoin:round;stroke-miterlimit:10;}
	.st4{fill:none;stroke:#34495E;stroke-width:1.5;stroke-linecap:round;stroke-miterlimit:10;}
	.st5{fill:none;stroke:#34495E;stroke-linecap:round;stroke-miterlimit:10;}
</style>
<image style="display:none;overflow:visible;" width="307" height="307" xlink:href="../../../../../../Downloads/nuxtLogo.png"  transform="matrix(0.3269 0 0 0.3269 0 -0.371)">
</image>
<polygon class="st0" points="61.2,15.4 32.7,64.8 89.7,64.8 "/>
<polygon class="st1" points="75.6,64.6 10.8,64.8 43,8.6 "/>
<polygon class="st2" points="75.9,64.4 32.9,64.8 54.1,27.3 "/>
<polyline class="st3" points="10.3,90.6 10.3,71.3 24.1,90.6 24.1,71.1 "/>
<path class="st3" d="M47.7,70.7v11.6c0,1.9-0.5,3.8-1.6,5.3c-1,1.4-2.7,2.7-5.3,2.7h-1.1c-2.6,0-4.2-1.3-5.3-2.7
	c-1.1-1.5-1.6-3.4-1.6-5.3V70.7"/>
<line class="st3" x1="55.8" y1="71.3" x2="69.9" y2="90.6"/>
<line class="st4" x1="69.9" y1="71.3" x2="55.8" y2="90.6"/>
<line class="st5" x1="76.1" y1="71.2" x2="90.4" y2="71.2"/>
<line class="st4" x1="83.2" y1="90.8" x2="83.2" y2="71.7"/>
</svg>
