<?xml version="1.0" encoding="utf-8"?>
<!-- Generator: Adobe Illustrator 23.0.2, SVG Export Plug-In . SVG Version: 6.00 Build 0)  -->
<svg version="1.1" id="Layer_1" xmlns="http://www.w3.org/2000/svg" xmlns:xlink="http://www.w3.org/1999/xlink" x="0px" y="0px"
	 viewBox="0 0 100 100" enable-background="new 0 0 100 100" xml:space="preserve">
<g>
	<g>
		<defs>
			<rect id="SVGID_1_" x="0.786" y="24.337" width="98.428" height="51.327"/>
		</defs>
		<clipPath id="SVGID_2_">
			<use xlink:href="#SVGID_1_"  overflow="visible"/>
		</clipPath>
		<path clip-path="url(#SVGID_2_)" fill-rule="evenodd" clip-rule="evenodd" fill="#8993BE" d="M99.22,49.991
			c0,6.795-5.185,13.311-14.415,18.116c-9.23,4.805-21.749,7.504-34.802,7.504s-25.572-2.699-34.802-7.504
			C5.971,63.302,0.786,56.786,0.786,49.991c0-6.795,5.185-13.311,14.415-18.116c9.23-4.805,21.749-7.504,34.802-7.504
			s25.572,2.699,34.802,7.504C94.035,36.68,99.22,43.196,99.22,49.991L99.22,49.991z M99.22,49.991"/>
	</g>
	<path fill-rule="evenodd" clip-rule="evenodd" fill="#232531" d="M14.607,65.161l5.394-27.306h12.472
		c5.393,0.337,8.09,3.034,8.09,7.754c0,8.09-6.405,12.81-12.136,12.473h-6.067l-1.348,7.079H14.607z M23.709,53.025l1.686-10.113
		h4.382c2.36,0,4.045,1.011,4.045,3.034c-0.337,5.731-3.034,6.743-6.067,7.08H23.709z M39.311,58.081l5.394-27.305h6.405
		l-1.348,7.079h6.067c5.394,0.337,7.416,3.034,6.742,6.405l-2.36,13.821h-6.742l2.36-12.473c0.337-1.686,0.337-2.697-2.022-2.697
		H48.75l-3.034,15.17H39.311z M59.779,65.161l5.394-27.306h12.473c5.394,0.337,8.091,3.034,8.091,7.754
		c0,8.09-6.405,12.81-12.136,12.473h-6.068l-1.348,7.079H59.779z M68.881,53.025l1.686-10.113h4.383c2.36,0,4.045,1.011,4.045,3.034
		c-0.337,5.731-3.034,6.743-6.068,7.08H68.881z M68.881,53.025"/>
</g>
</svg>
