<?xml version="1.0" encoding="utf-8"?>
<!-- Generator: Adobe Illustrator 23.0.2, SVG Export Plug-In . SVG Version: 6.00 Build 0)  -->
<svg version="1.1" id="Layer_1" xmlns="http://www.w3.org/2000/svg" xmlns:xlink="http://www.w3.org/1999/xlink" x="0px" y="0px"
	 viewBox="0 0 2500 2438" enable-background="new 0 0 2500 2438" xml:space="preserve">
<radialGradient id="SVGID_1_" cx="1015.7864" cy="940.6138" r="0.76" gradientTransform="matrix(2291.6716 0 0 -2218.7549 -2326989.75 2087595.375)" gradientUnits="userSpaceOnUse">
	<stop  offset="0" style="stop-color:#34364E;stop-opacity:0.98"/>
	<stop  offset="1" style="stop-color:#0C0824"/>
</radialGradient>
<path fill="url(#SVGID_1_)" d="M104.165,104.413h2291.673v2229.173H104.165V104.413z"/>
<path fill="#31C5F0" d="M104.165,104.413h2291.673v2229.173H104.165V104.413z M0,2437.756h2500.004V0.248H0V2437.756z
	 M1685.42,1000.25c-82.293,0-110.415,41.665-110.415,76.04c0,37.499,18.748,63.542,129.166,120.834
	c163.541,79.169,214.584,155.209,214.584,266.669c0,166.666-127.083,256.25-298.961,256.25c-90.626,0-168.753-18.752-213.543-44.79
	c-7.291-3.125-8.332-8.332-8.332-16.669v-153.126c0-10.415,5.208-13.544,12.503-8.332c65.625,42.711,140.623,61.459,209.372,61.459
	c82.293,0,116.668-34.375,116.668-81.252c0-37.499-23.959-70.832-129.171-125c-147.918-70.832-209.372-142.706-209.372-262.499
	c0-134.378,105.211-245.834,287.5-245.834c89.584,0,152.084,13.544,186.459,29.167c8.332,5.208,10.415,13.54,10.415,20.831v142.706
	c0,8.332-5.208,13.544-15.627,10.415C1820.835,1017.96,1753.127,1000.25,1685.42,1000.25L1685.42,1000.25z M789.583,1124.208
	c23.959,2.083,42.711,2.083,84.376,2.083c121.88,0,236.461-42.707,236.461-208.331c0-132.291-82.293-198.961-220.833-198.961
	c-41.665,0-81.252,2.083-100.003,3.125V1124.208z M604.17,571.081c0-7.291,14.586-12.502,22.914-12.502
	c66.67-3.125,165.628-5.208,268.752-5.208c288.541,0,401.039,158.333,401.039,360.419c0,264.582-191.666,378.125-427.081,378.125
	c-39.582,0-53.122-2.083-81.252-2.083v400.001c0,8.332-3.125,12.498-12.498,12.498H616.669c-8.332,0-12.503-3.125-12.503-12.498
	V571.081H604.17z"/>
</svg>
