<?xml version="1.0" encoding="utf-8"?>
<!-- Generator: Adobe Illustrator 23.0.2, SVG Export Plug-In . SVG Version: 6.00 Build 0)  -->
<svg version="1.1" id="Layer_2_1_" xmlns="http://www.w3.org/2000/svg" xmlns:xlink="http://www.w3.org/1999/xlink" x="0px" y="0px"
	 viewBox="0 0 100 100" style="enable-background:new 0 0 100 100;" xml:space="preserve">
<style type="text/css">
	.st0{fill:#61DAFB;}
	.st1{font-family:'Lato-Regular';}
	.st2{font-size:25.7474px;}
</style>
<g>
	<path class="st0" d="M88.2,38.5c0-5.1-6.3-9.9-16.1-12.8c2.2-9.9,1.2-17.8-3.1-20.3c-1-0.6-2.2-0.9-3.5-0.9v3.5
		c0.7,0,1.3,0.1,1.8,0.4c2.1,1.2,3,5.8,2.3,11.8c-0.2,1.5-0.5,3-0.8,4.6c-3.1-0.7-6.4-1.3-9.9-1.7c-2.1-2.9-4.3-5.5-6.5-7.8
		c5.1-4.7,9.9-7.3,13.1-7.3V4.4l0,0c-4.3,0-9.9,3.1-15.6,8.4c-5.7-5.3-11.3-8.3-15.6-8.3V8c3.2,0,8,2.6,13.1,7.3
		c-2.2,2.3-4.4,4.9-6.4,7.8c-3.5,0.4-6.9,1-9.9,1.7c-0.4-1.6-0.6-3.1-0.8-4.5c-0.7-6,0.2-10.6,2.3-11.8C33.1,8.1,33.7,8,34.4,8V4.5
		l0,0c-1.3,0-2.5,0.3-3.5,0.9c-4.4,2.5-5.4,10.4-3.1,20.3c-9.7,3-16,7.8-16,12.8c0,5.1,6.3,9.9,16.1,12.8
		c-2.2,9.9-1.2,17.8,3.1,20.3c1,0.6,2.2,0.9,3.5,0.9c4.3,0,9.9-3.1,15.6-8.4c5.7,5.3,11.3,8.3,15.6,8.3c1.3,0,2.5-0.3,3.5-0.9
		c4.4-2.5,5.4-10.4,3.1-20.3C81.9,48.4,88.2,43.6,88.2,38.5z M67.9,28.1c-0.6,2-1.3,4.1-2.1,6.2c-0.6-1.2-1.3-2.5-2-3.7
		c-0.7-1.2-1.5-2.5-2.2-3.6C63.8,27.2,65.9,27.6,67.9,28.1z M60.8,44.7c-1.2,2.1-2.5,4.1-3.8,6c-2.3,0.2-4.7,0.3-7,0.3
		c-2.4,0-4.7-0.1-7-0.3c-1.3-1.9-2.6-3.8-3.8-5.9c-1.2-2-2.3-4.1-3.2-6.2c1-2.1,2.1-4.2,3.2-6.2c1.2-2.1,2.5-4.1,3.8-6
		c2.3-0.2,4.7-0.3,7-0.3c2.4,0,4.7,0.1,7,0.3c1.3,1.9,2.6,3.8,3.8,5.9c1.2,2,2.3,4.1,3.2,6.2C63,40.6,62,42.7,60.8,44.7z M65.8,42.7
		c0.8,2.1,1.6,4.2,2.2,6.2c-2,0.5-4.2,0.9-6.4,1.2c0.8-1.2,1.5-2.4,2.2-3.7C64.5,45.2,65.2,43.9,65.8,42.7z M50,59.3
		c-1.4-1.5-2.9-3.2-4.3-5c1.4,0.1,2.8,0.1,4.3,0.1c1.5,0,2.9,0,4.3-0.1C52.9,56.1,51.5,57.8,50,59.3z M38.4,50.1
		c-2.2-0.3-4.3-0.7-6.4-1.2c0.6-2,1.3-4.1,2.1-6.2c0.6,1.2,1.3,2.5,2,3.7C36.9,47.7,37.7,48.9,38.4,50.1z M50,17.7
		c1.4,1.5,2.9,3.2,4.3,5c-1.4-0.1-2.8-0.1-4.3-0.1c-1.5,0-2.9,0-4.3,0.1C47.1,20.9,48.5,19.2,50,17.7z M38.4,26.9
		c-0.8,1.2-1.5,2.4-2.2,3.7c-0.7,1.2-1.4,2.5-2,3.7c-0.8-2.1-1.6-4.2-2.2-6.2C34,27.6,36.2,27.2,38.4,26.9z M24.3,46.4
		c-5.5-2.4-9.1-5.4-9.1-7.9c0-2.4,3.6-5.5,9.1-7.9c1.3-0.6,2.8-1.1,4.3-1.6c0.9,3.1,2.1,6.2,3.5,9.5c-1.4,3.2-2.6,6.4-3.5,9.4
		C27.1,47.5,25.7,47,24.3,46.4z M32.7,68.7c-2.1-1.2-3-5.8-2.3-11.8c0.2-1.5,0.5-3,0.8-4.6c3.1,0.7,6.4,1.3,9.9,1.7
		c2.1,2.9,4.3,5.5,6.5,7.8c-5.1,4.7-9.9,7.3-13.1,7.3C33.8,69.1,33.2,68.9,32.7,68.7z M69.7,56.8c0.7,6-0.2,10.6-2.3,11.8
		c-0.5,0.3-1.1,0.4-1.8,0.4c-3.2,0-8-2.6-13.1-7.3c2.2-2.3,4.4-4.9,6.4-7.8c3.5-0.4,6.9-1,9.9-1.7C69.2,53.8,69.5,55.3,69.7,56.8z
		 M75.7,46.4c-1.3,0.6-2.8,1.1-4.3,1.6c-0.9-3.1-2.1-6.2-3.5-9.5c1.4-3.2,2.6-6.4,3.5-9.4c1.5,0.5,3,1,4.4,1.6
		c5.5,2.4,9.1,5.4,9.1,7.9C84.8,40.9,81.2,44.1,75.7,46.4z"/>
	<path class="st0" d="M34.4,4.5L34.4,4.5L34.4,4.5z"/>
	<circle class="st0" cx="50" cy="38.5" r="7.1"/>
	<path class="st0" d="M65.5,4.5L65.5,4.5L65.5,4.5z"/>
</g>
<text transform="matrix(1 0 0 1 17.6233 97.1508)" class="st0 st1 st2">React</text>
</svg>
