<?xml version="1.0" encoding="utf-8"?>
<!-- Generator: Adobe Illustrator 23.0.3, SVG Export Plug-In . SVG Version: 6.00 Build 0)  -->
<svg version="1.1" id="Layer_1" xmlns="http://www.w3.org/2000/svg" xmlns:xlink="http://www.w3.org/1999/xlink" x="0px" y="0px"
	 viewBox="0 0 100 100" style="enable-background:new 0 0 100 100;" xml:space="preserve">
<style type="text/css">
	.st0{fill:#764ABC;}
	.st1{enable-background:new    ;}
</style>
<g>
	<path class="st0" d="M63.9,53.3c2.7-0.3,4.7-2.6,4.6-5.3s-2.4-4.9-5.1-4.9h-0.2c-2.8,0.1-5,2.5-4.9,5.3c0.1,1.4,0.6,2.6,1.5,3.4
		c-3.1,6.1-7.9,10.6-15,14.4c-4.9,2.6-9.9,3.5-14.9,2.8c-4.1-0.5-7.3-2.4-9.3-5.4c-2.9-4.5-3.2-9.3-0.7-14.2c1.7-3.5,4.5-6,6.2-7.3
		c-0.4-1.2-0.9-3.2-1.2-4.7C11.4,47,12.7,60,16.8,66.1c3,4.6,9.2,7.4,15.9,7.4c1.8,0,3.7-0.2,5.5-0.6C50,70.6,58.9,63.7,63.9,53.3z"
		/>
	<path class="st0" d="M80,41.9c-7-8.2-17.2-12.6-29-12.6h-1.5c-0.8-1.6-2.6-2.7-4.5-2.7h-0.2c-2.8,0.1-5,2.5-4.9,5.3
		c0.1,2.7,2.4,4.9,5.1,4.9h0.2c2-0.1,3.8-1.4,4.5-3.1h1.6c7,0,13.6,2,19.5,6c4.6,3,7.9,7,9.7,11.7c1.6,3.8,1.5,7.6-0.2,10.8
		c-2.6,4.9-6.9,7.5-12.6,7.5c-3.7,0-7.1-1.1-9-1.9c-1,0.9-2.8,2.4-4.1,3.3c3.9,1.8,8,2.8,11.8,2.8c8.8,0,15.3-4.9,17.8-9.7
		C87.1,58.9,86.9,49.7,80,41.9z"/>
	<path class="st0" d="M33.5,54.9c0.1,2.7,2.4,4.9,5.1,4.9h0.2c2.8-0.1,5-2.5,4.9-5.3c-0.1-2.7-2.4-4.9-5.1-4.9h-0.2
		c-0.2,0-0.5,0-0.6,0.1c-3.8-6.2-5.3-13-4.8-20.3c0.4-5.5,2.2-10.3,5.4-14.2c2.7-3.4,7.8-5,11.3-5.1C59.4,9.9,63.5,22,63.8,26.9
		c1.2,0.3,3.2,0.9,4.6,1.4c-1.1-15-10.3-22.7-19.1-22.7c-8.2,0-15.9,6-18.9,14.8c-4.2,11.7-1.5,23,3.7,31.9
		C33.6,52.9,33.4,53.9,33.5,54.9z"/>
</g>
<g class="st1">
	<path d="M20.2,88.7v6.5h-4.1V77.7h5.7c1.3,0,2.3,0.1,3.2,0.4s1.6,0.6,2.2,1.1s1,1,1.2,1.6s0.4,1.3,0.4,2.1c0,0.6-0.1,1.1-0.2,1.6
		c-0.2,0.5-0.4,1-0.7,1.4c-0.3,0.4-0.7,0.8-1.1,1.1c-0.4,0.3-0.9,0.6-1.5,0.8c0.3,0.1,0.5,0.3,0.8,0.5c0.2,0.2,0.4,0.4,0.6,0.7
		l3.7,6.1h-3.7c-0.7,0-1.2-0.3-1.5-0.8l-2.9-5.1c-0.1-0.2-0.3-0.4-0.5-0.5c-0.2-0.1-0.4-0.1-0.7-0.1H20.2z M20.2,85.9h1.6
		c0.6,0,1-0.1,1.4-0.2c0.4-0.1,0.7-0.3,1-0.6c0.2-0.2,0.4-0.5,0.5-0.9c0.1-0.3,0.2-0.7,0.2-1.1c0-0.8-0.3-1.4-0.8-1.8
		c-0.5-0.4-1.3-0.6-2.3-0.6h-1.6V85.9z"/>
	<path d="M37.4,82.5c0.8,0,1.6,0.1,2.3,0.4c0.7,0.3,1.3,0.6,1.8,1.1s0.9,1.1,1.2,1.8c0.3,0.7,0.4,1.5,0.4,2.4c0,0.3,0,0.5,0,0.7
		c0,0.2-0.1,0.3-0.1,0.4c-0.1,0.1-0.1,0.2-0.3,0.2s-0.2,0.1-0.4,0.1H35c0.1,1,0.4,1.8,0.9,2.3c0.5,0.5,1.2,0.7,2,0.7
		c0.4,0,0.8-0.1,1.1-0.2c0.3-0.1,0.6-0.2,0.8-0.3c0.2-0.1,0.5-0.2,0.7-0.3c0.2-0.1,0.4-0.2,0.6-0.2c0.3,0,0.5,0.1,0.7,0.3l1.1,1.3
		c-0.4,0.4-0.8,0.8-1.2,1.1c-0.4,0.3-0.9,0.5-1.4,0.6c-0.5,0.2-0.9,0.3-1.4,0.3c-0.5,0.1-0.9,0.1-1.3,0.1c-0.9,0-1.7-0.1-2.5-0.4
		c-0.8-0.3-1.4-0.7-2-1.3c-0.6-0.6-1-1.3-1.4-2.1s-0.5-1.8-0.5-2.9c0-0.8,0.1-1.6,0.4-2.4c0.3-0.7,0.7-1.4,1.2-2
		c0.5-0.6,1.2-1,1.9-1.3S36.5,82.5,37.4,82.5z M37.5,85.1c-0.7,0-1.3,0.2-1.7,0.6s-0.7,1-0.8,1.7h4.6c0-0.3,0-0.6-0.1-0.9
		c-0.1-0.3-0.2-0.5-0.4-0.8c-0.2-0.2-0.4-0.4-0.7-0.5C38.2,85.2,37.9,85.1,37.5,85.1z"/>
	<path d="M53.9,95.2c-0.2,0-0.4-0.1-0.6-0.2c-0.2-0.1-0.3-0.3-0.3-0.5l-0.3-0.9c-0.2,0.3-0.5,0.5-0.8,0.7c-0.3,0.2-0.6,0.4-0.9,0.6
		c-0.3,0.2-0.7,0.3-1,0.4c-0.4,0.1-0.8,0.1-1.2,0.1c-0.6,0-1.2-0.1-1.8-0.4c-0.6-0.3-1-0.7-1.4-1.2c-0.4-0.5-0.7-1.2-0.9-2
		c-0.2-0.8-0.3-1.7-0.3-2.7c0-0.9,0.1-1.8,0.4-2.6s0.6-1.5,1.1-2.1c0.5-0.6,1-1,1.7-1.4c0.7-0.3,1.4-0.5,2.2-0.5
		c0.6,0,1.2,0.1,1.6,0.3c0.4,0.2,0.8,0.4,1.2,0.7v-6.3h3.7v18H53.9z M50.1,92.5c0.3,0,0.5,0,0.7-0.1c0.2-0.1,0.4-0.1,0.6-0.2
		c0.2-0.1,0.4-0.2,0.5-0.4c0.2-0.1,0.3-0.3,0.5-0.5v-5.3c-0.3-0.3-0.6-0.5-0.9-0.7c-0.3-0.1-0.7-0.2-1-0.2c-0.3,0-0.7,0.1-0.9,0.2
		c-0.3,0.1-0.5,0.4-0.8,0.7c-0.2,0.3-0.4,0.7-0.5,1.2c-0.1,0.5-0.2,1.1-0.2,1.7c0,0.7,0,1.2,0.1,1.7c0.1,0.4,0.2,0.8,0.4,1.1
		c0.2,0.3,0.4,0.5,0.6,0.6S49.8,92.5,50.1,92.5z"/>
	<path d="M62.6,82.7v7.9c0,0.6,0.1,1.1,0.4,1.4c0.3,0.3,0.7,0.5,1.2,0.5c0.4,0,0.8-0.1,1.1-0.3c0.4-0.2,0.7-0.4,1-0.7v-8.9h3.7v12.4
		h-2.3c-0.5,0-0.8-0.2-0.9-0.6l-0.2-0.7c-0.2,0.2-0.5,0.4-0.7,0.6c-0.3,0.2-0.5,0.3-0.8,0.5c-0.3,0.1-0.6,0.2-0.9,0.3
		s-0.7,0.1-1.1,0.1c-0.7,0-1.3-0.1-1.8-0.4c-0.5-0.2-1-0.6-1.3-1c-0.4-0.4-0.6-0.9-0.8-1.5c-0.2-0.6-0.3-1.2-0.3-1.9v-7.9H62.6z"/>
	<path d="M76,88.8l-4-6h3.6c0.3,0,0.5,0,0.6,0.1c0.1,0.1,0.2,0.2,0.3,0.3l2.2,3.7c0-0.1,0.1-0.3,0.2-0.4c0.1-0.1,0.2-0.3,0.2-0.4
		l1.6-2.8c0.1-0.2,0.2-0.3,0.3-0.4s0.3-0.1,0.5-0.1h3.4l-4,5.8l4.2,6.6h-3.6c-0.3,0-0.5-0.1-0.6-0.2c-0.2-0.1-0.3-0.3-0.4-0.5
		l-2.2-3.8c0,0.1-0.1,0.3-0.1,0.4c-0.1,0.1-0.1,0.2-0.2,0.3l-1.8,3.1c-0.1,0.2-0.2,0.3-0.4,0.5s-0.4,0.2-0.6,0.2h-3.3L76,88.8z"/>
</g>
</svg>
