<?xml version="1.0" encoding="utf-8"?>
<!-- Generator: Adobe Illustrator 23.0.2, SVG Export Plug-In . SVG Version: 6.00 Build 0)  -->
<svg version="1.1" id="Layer_1" xmlns="http://www.w3.org/2000/svg" xmlns:xlink="http://www.w3.org/1999/xlink" x="0px" y="0px"
	 viewBox="0 0 100 100" style="enable-background:new 0 0 100 100;" xml:space="preserve">
<style type="text/css">
	.st0{fill:#764ABC;}
	.st1{font-family:'Lato-Black';}
	.st2{font-size:24px;}
</style>
<g>
	<path class="st0" d="M63.9,53.3c2.7-0.3,4.7-2.6,4.6-5.3c-0.1-2.7-2.4-4.9-5.1-4.9h-0.2c-2.8,0.1-5,2.5-4.9,5.3
		c0.1,1.4,0.6,2.6,1.5,3.4c-3.1,6.1-7.9,10.6-15,14.4c-4.9,2.6-9.9,3.5-14.9,2.8c-4.1-0.5-7.3-2.4-9.3-5.4
		c-2.9-4.5-3.2-9.3-0.7-14.2c1.7-3.5,4.5-6,6.2-7.3c-0.4-1.2-0.9-3.2-1.2-4.7C11.4,47,12.7,60,16.8,66.1c3,4.6,9.2,7.4,15.9,7.4
		c1.8,0,3.7-0.2,5.5-0.6C50,70.6,58.9,63.7,63.9,53.3z"/>
	<path class="st0" d="M80,41.9c-7-8.2-17.2-12.6-29-12.6h-1.5c-0.8-1.6-2.6-2.7-4.5-2.7h-0.2c-2.8,0.1-5,2.5-4.9,5.3
		c0.1,2.7,2.4,4.9,5.1,4.9h0.2c2-0.1,3.8-1.4,4.5-3.1h1.6c7,0,13.6,2,19.5,6c4.6,3,7.9,7,9.7,11.7c1.6,3.8,1.5,7.6-0.2,10.8
		c-2.6,4.9-6.9,7.5-12.6,7.5c-3.7,0-7.1-1.1-9-1.9c-1,0.9-2.8,2.4-4.1,3.3c3.9,1.8,8,2.8,11.8,2.8c8.8,0,15.3-4.9,17.8-9.7
		C87.1,58.9,86.9,49.7,80,41.9z"/>
	<path class="st0" d="M33.5,54.9c0.1,2.7,2.4,4.9,5.1,4.9h0.2c2.8-0.1,5-2.5,4.9-5.3c-0.1-2.7-2.4-4.9-5.1-4.9h-0.2
		c-0.2,0-0.5,0-0.6,0.1c-3.8-6.2-5.3-13-4.8-20.3c0.4-5.5,2.2-10.3,5.4-14.2c2.7-3.4,7.8-5,11.3-5.1c9.7-0.2,13.8,11.9,14.1,16.8
		c1.2,0.3,3.2,0.9,4.6,1.4C67.3,13.3,58.1,5.6,49.3,5.6c-8.2,0-15.9,6-18.9,14.8c-4.2,11.7-1.5,23,3.7,31.9
		C33.6,52.9,33.4,53.9,33.5,54.9z"/>
</g>
<text transform="matrix(1 0 0 1 14.6964 95.1856)" class="st1 st2">Redux</text>
</svg>
