<?xml version="1.0" encoding="utf-8"?>
<!-- Generator: Adobe Illustrator 23.0.2, SVG Export Plug-In . SVG Version: 6.00 Build 0)  -->
<svg version="1.1" id="Layer_1" xmlns="http://www.w3.org/2000/svg" xmlns:xlink="http://www.w3.org/1999/xlink" x="0px" y="0px"
	 viewBox="0 0 252 180" enable-background="new 0 0 252 180" xml:space="preserve">
<g>
	<path fill="#00749A" d="M113.801,141.341h-12.624v1.34c3.949,0,4.583,0.846,4.583,5.854v9.027c0,5.007-0.634,5.924-4.583,5.924
		c-3.032-0.423-5.077-2.046-7.898-5.148l-3.244-3.526c4.373-0.777,6.7-3.527,6.7-6.631c0-3.877-3.314-6.84-9.521-6.84H74.802v1.34
		c3.949,0,4.583,0.846,4.583,5.854v9.027c0,5.007-0.634,5.924-4.583,5.924v1.339h14.034v-1.339c-3.95,0-4.584-0.917-4.584-5.924
		v-2.539h1.199l7.828,9.801h20.522c10.085,0,14.457-5.359,14.457-11.777C128.258,146.631,123.886,141.341,113.801,141.341z
		 M84.251,152.837v-9.379h2.891c3.173,0,4.584,2.186,4.584,4.723c0,2.47-1.411,4.655-4.584,4.655H84.251z M114.012,162.639h-0.494
		c-2.539,0-2.891-0.634-2.891-3.878v-15.303c0,0,3.103,0,3.386,0c7.334,0,8.674,5.359,8.674,9.52
		C122.686,157.28,121.346,162.639,114.012,162.639z"/>
	<path fill="#00749A" d="M35.521,155.447l4.866-14.388c1.411-4.16,0.777-5.359-3.737-5.359v-1.411h13.259v1.411
		c-4.443,0-5.501,1.057-7.264,6.206l-8.04,24.119h-0.916l-7.194-22.075l-7.334,22.075h-0.917l-7.828-24.119
		c-1.693-5.148-2.821-6.206-6.912-6.206v-1.411H19.16v1.411c-4.161,0-5.29,0.987-3.808,5.359l4.724,14.388l7.123-21.158h1.341
		L35.521,155.447z"/>
	<path fill="#00749A" d="M59.498,165.742c-7.757,0-14.105-5.711-14.105-12.694c0-6.911,6.348-12.624,14.105-12.624
		c7.758,0,14.105,5.713,14.105,12.624C73.603,160.031,67.255,165.742,59.498,165.742z M59.498,142.611
		c-6.488,0-8.745,5.853-8.745,10.437c0,4.655,2.257,10.438,8.745,10.438c6.559,0,8.815-5.783,8.815-10.438
		C68.313,148.464,66.057,142.611,59.498,142.611z"/>
	<path fill="#464342" d="M145.676,163.415v1.41h-16.15v-1.41c4.726,0,5.571-1.199,5.571-8.251v-11.283
		c0-7.054-0.846-8.181-5.571-8.181v-1.411h14.598c7.264,0,11.284,3.738,11.284,8.747c0,4.866-4.02,8.674-11.284,8.674h-4.02v3.454
		C140.105,162.217,140.951,163.415,145.676,163.415z M144.125,136.827h-4.02v12.271h4.02c3.95,0,5.783-2.75,5.783-6.063
		C149.907,139.65,148.074,136.827,144.125,136.827z"/>
	<path fill="#464342" d="M203.857,158.197l-0.352,1.27c-0.634,2.327-1.411,3.173-6.418,3.173h-0.987
		c-3.667,0-4.301-0.846-4.301-5.853v-3.244c5.5,0,5.924,0.493,5.924,4.161h1.34v-10.508h-1.34c0,3.667-0.424,4.16-5.924,4.16v-7.897
		h3.878c5.007,0,5.783,0.846,6.417,3.173l0.353,1.339h1.128l-0.493-6.629h-20.735v1.34c3.95,0,4.584,0.846,4.584,5.854v9.027
		c0,4.581-0.539,5.734-3.653,5.899c-2.959-0.453-4.992-2.067-7.771-5.123l-3.244-3.526c4.373-0.777,6.701-3.527,6.701-6.631
		c0-3.877-3.314-6.84-9.521-6.84H157.03v1.34c3.95,0,4.584,0.846,4.584,5.854v9.027c0,5.007-0.634,5.924-4.584,5.924v1.339h14.034
		v-1.339c-3.949,0-4.583-0.917-4.583-5.924v-2.539h1.199l7.827,9.801h28.985l0.423-6.629H203.857z M166.481,152.837v-9.379h2.891
		c3.173,0,4.584,2.186,4.584,4.723c0,2.47-1.411,4.655-4.584,4.655H166.481z"/>
	<path fill="#464342" d="M218.173,165.742c-2.821,0-5.29-1.48-6.347-2.397c-0.353,0.353-0.987,1.41-1.128,2.397h-1.34v-9.731h1.41
		c0.564,4.654,3.809,7.404,7.97,7.404c2.256,0,4.09-1.269,4.09-3.384c0-1.834-1.623-3.244-4.513-4.584l-4.02-1.904
		c-2.821-1.341-4.937-3.667-4.937-6.77c0-3.386,3.173-6.277,7.547-6.277c2.327,0,4.3,0.846,5.5,1.834
		c0.353-0.283,0.704-1.059,0.917-1.905h1.34v8.323h-1.481c-0.494-3.315-2.327-6.065-6.064-6.065c-1.975,0-3.81,1.128-3.81,2.891
		c0,1.834,1.481,2.82,4.867,4.373l3.879,1.904c3.386,1.621,4.725,4.231,4.725,6.347
		C226.777,162.639,222.898,165.742,218.173,165.742z"/>
	<path fill="#464342" d="M239.894,165.742c-2.821,0-5.291-1.48-6.348-2.397c-0.353,0.353-0.987,1.41-1.127,2.397h-1.341v-9.731
		h1.411c0.564,4.654,3.807,7.404,7.969,7.404c2.257,0,4.091-1.269,4.091-3.384c0-1.834-1.623-3.244-4.514-4.584l-4.02-1.904
		c-2.821-1.341-4.937-3.667-4.937-6.77c0-3.386,3.174-6.277,7.547-6.277c2.327,0,4.301,0.846,5.501,1.834
		c0.352-0.283,0.704-1.059,0.916-1.905h1.34v8.323H244.9c-0.493-3.315-2.327-6.065-6.064-6.065c-1.974,0-3.808,1.128-3.808,2.891
		c0,1.834,1.48,2.82,4.867,4.373l3.877,1.904c3.386,1.621,4.726,4.231,4.726,6.347C248.497,162.639,244.619,165.742,239.894,165.742
		z"/>
	<g>
		<path fill="#464342" d="M80.195,67.087c0,18.035,10.481,33.621,25.68,41.007L84.14,48.544
			C81.612,54.21,80.195,60.481,80.195,67.087z"/>
		<path fill="#464342" d="M156.517,64.788c0-5.631-2.023-9.531-3.757-12.566c-2.309-3.753-4.475-6.932-4.475-10.685
			c0-4.188,3.176-8.087,7.651-8.087c0.202,0,0.393,0.026,0.59,0.037c-8.106-7.427-18.906-11.962-30.768-11.962
			c-15.918,0-29.922,8.168-38.07,20.537c1.07,0.033,2.078,0.055,2.933,0.055c4.765,0,12.143-0.579,12.143-0.579
			c2.456-0.144,2.746,3.463,0.292,3.753c0,0-2.469,0.29-5.214,0.435l16.592,49.354l9.972-29.905l-7.1-19.449
			c-2.453-0.144-4.778-0.435-4.778-0.435c-2.455-0.144-2.167-3.898,0.289-3.753c0,0,7.524,0.579,12.001,0.579
			c4.765,0,12.143-0.579,12.143-0.579c2.458-0.144,2.746,3.463,0.292,3.753c0,0-2.473,0.29-5.215,0.435l16.466,48.979l4.545-15.186
			C155.018,73.214,156.517,68.689,156.517,64.788z"/>
		<path fill="#464342" d="M126.558,71.073l-13.671,39.725c4.082,1.2,8.399,1.856,12.871,1.856c5.305,0,10.394-0.917,15.13-2.583
			c-0.122-0.195-0.233-0.402-0.324-0.627L126.558,71.073z"/>
		<path fill="#464342" d="M165.739,45.228c0.196,1.451,0.307,3.008,0.307,4.685c0,4.622-0.864,9.82-3.464,16.32l-13.918,40.239
			c13.546-7.9,22.657-22.576,22.657-39.385C171.321,59.166,169.298,51.717,165.739,45.228z"/>
		<path fill="#464342" d="M125.758,13.975c-29.286,0-53.113,23.827-53.113,53.112c0,29.29,23.827,53.115,53.113,53.115
			c29.285,0,53.115-23.825,53.115-53.115C178.874,37.802,155.043,13.975,125.758,13.975z M125.758,117.766
			c-27.943,0-50.678-22.734-50.678-50.679c0-27.943,22.735-50.676,50.678-50.676c27.942,0,50.675,22.734,50.675,50.676
			C176.433,95.032,153.7,117.766,125.758,117.766z"/>
	</g>
</g>
<g>
</g>
<g>
</g>
<g>
</g>
<g>
</g>
<g>
</g>
<g>
</g>
</svg>
