<?xml version="1.0" encoding="utf-8"?>
<!-- Generator: Adobe Illustrator 23.0.3, SVG Export Plug-In . SVG Version: 6.00 Build 0)  -->
<svg version="1.1" id="Layer_1" xmlns="http://www.w3.org/2000/svg" xmlns:xlink="http://www.w3.org/1999/xlink" x="0px" y="0px"
	 viewBox="0 0 100 100" style="enable-background:new 0 0 100 100;" xml:space="preserve">
<style type="text/css">
	.st0{display:none;fill:#FFFFFF;}
</style>
<g>
	<g>
		<path d="M29.5,39.6c-3,5.6-3.8,12.6-1,18.3c2.6,5.3,7.9,8.9,13.7,10.7c5.6,1.8,11.2,2,17,2.1l-1.5,1c-13.1,3.1-28.5-0.9-33.3-9.9
			c-4.6-8.7-0.8-17.8,6.6-24.3L29.5,39.6z"/>
		<g>
			<path d="M29.1,39.4c-4,7.9-3.8,17.6,2.9,24c7.3,6.9,17.7,7.6,27.2,7.8c-0.1-0.3-0.2-0.6-0.3-0.9c-3.8,2.4-9.4,2.2-13.8,1.9
				c-5.2-0.4-10.5-1.9-14.9-4.7c-4.7-3.1-7.6-8.2-7.4-14c0.3-6.2,4-11.5,8.4-15.6c-0.3-0.2-0.5-0.4-0.8-0.6
				C30.2,38,29.6,38.7,29.1,39.4c-0.4,0.5,0.4,1,0.8,0.5c0.5-0.7,1-1.3,1.5-2.1c0.3-0.4-0.4-1-0.8-0.6c-4.6,4-8.3,9.4-8.7,15.7
				c-0.4,5.6,2.1,10.9,6.5,14.3c4.2,3.3,9.6,5,14.9,5.6c5,0.6,11.7,1,16.2-1.8c0.4-0.3,0.3-0.9-0.3-0.9c-8.4-0.2-17.4-0.7-24.4-5.8
				c-8.1-5.8-9.2-16-4.9-24.6C30.2,39.3,29.4,38.8,29.1,39.4z"/>
		</g>
	</g>
	<g>
		<path class="st0" d="M31.3,60.8c-4.9-8.1-5.6-16.5-0.6-23.7c0.1-0.1-0.1-0.3-0.3-0.2c-8.3,5.6-6.8,20.3-1.9,27.6
			c6.6,9.9,21.1,11.3,29.5,8.1c2.8-1.1,5-2.7,6.7-4.9c-0.4,0.3-0.9,0.6-1.3,0.9C52.3,75.3,38,71.8,31.3,60.8z"/>
		<path d="M74.6,48.6c0-7.9-1.1-14.7-3.3-20.8c-0.7-1.9-1.5-3.8-2.4-5.5c-1.4-2.8-3.1-4.9-5.1-6.3c-3.2-2.6-7.4-4.2-12.1-4.2
			c-0.8,0-1.5,0.1-2.2,0.1l0,0c-3.5,0.4-6.8,1.7-9.4,3.7c-1.9,1.2-3.4,2.8-4.9,4.7c-0.1,0.1-0.3,0.3-0.4,0.4l0,0
			c-2.6,3.9-6.7,6.7-11.4,7.7c0.3,0.1,0.6,0.3,0.8,0.4l0,0c1.2,0.5,2.7,1,4.2,1.4l0,0c1.2,0.3,2.4,0.4,3.6,0.4
			c0.4,0,0.8-0.1,1.2-0.1c0-0.2,0-0.6,0-0.7c0-6.2,5.1-11.2,11.3-11.1c1.4,0,2.8,0.3,4.1,0.8c3.2,1.3,5.7,4.2,6.5,7.6
			c0.2,0.7,0.3,1.3,0.3,2.1l0,0c0.3,2,0.4,4,0.4,6c0,4.2-0.6,8.2-1.5,12c-0.8,3-1.3,6-1.3,9.2v0.1c0,1.1,0,2.1,0,3.1
			c0.2,13.7,10.5,14.7,24.2,14.9c0.2,0,0.4,0,0.6,0c0.1-0.2,0.1-0.3,0.2-0.4C72.3,67.8,74.6,58.6,74.6,48.6z"/>
		<circle cx="42.5" cy="28.5" r="2.6"/>
	</g>
</g>
<g>
	<path d="M14.3,93.6h-1.8c-0.2,0-0.4,0-0.5-0.1c-0.1-0.1-0.2-0.2-0.3-0.4l-0.6-1.8H7.2l-0.6,1.8c0,0.1-0.1,0.2-0.3,0.4
		c-0.1,0.1-0.3,0.2-0.5,0.2H4l3.9-10.2h2.4L14.3,93.6z M7.7,89.7h2.8l-0.9-2.8c-0.1-0.2-0.1-0.4-0.2-0.6s-0.2-0.5-0.2-0.8
		C9,85.8,9,86,8.9,86.3c-0.1,0.2-0.2,0.5-0.2,0.6L7.7,89.7z"/>
	<path d="M16.5,93.6v-7.3h1.3c0.1,0,0.2,0,0.3,0c0.1,0,0.1,0,0.2,0.1c0,0,0.1,0.1,0.1,0.2c0,0.1,0,0.1,0.1,0.2l0.1,0.7
		c0.3-0.4,0.6-0.7,0.9-1s0.7-0.4,1.1-0.4c0.3,0,0.6,0.1,0.8,0.2L21,88c0,0.1-0.1,0.2-0.1,0.2c-0.1,0-0.1,0.1-0.2,0.1
		c-0.1,0-0.2,0-0.3,0c-0.1,0-0.2,0-0.4,0c-0.6,0-1,0.3-1.3,0.9v4.5H16.5z"/>
	<path d="M26.2,84.3c0,0.2,0,0.3-0.1,0.5c-0.1,0.2-0.2,0.3-0.3,0.4s-0.3,0.2-0.4,0.3c-0.2,0.1-0.3,0.1-0.5,0.1c-0.2,0-0.3,0-0.5-0.1
		c-0.2-0.1-0.3-0.2-0.4-0.3c-0.1-0.1-0.2-0.2-0.3-0.4c-0.1-0.2-0.1-0.3-0.1-0.5c0-0.2,0-0.3,0.1-0.5s0.2-0.3,0.3-0.4
		c0.1-0.1,0.3-0.2,0.4-0.3c0.2-0.1,0.3-0.1,0.5-0.1c0.2,0,0.4,0,0.5,0.1s0.3,0.2,0.4,0.3c0.1,0.1,0.2,0.3,0.3,0.4
		S26.2,84.1,26.2,84.3z M25.9,86.3v7.3h-2.2v-7.3H25.9z"/>
	<path d="M33.5,87.9c-0.1,0.1-0.1,0.2-0.2,0.2c-0.1,0-0.1,0.1-0.2,0.1c-0.1,0-0.2,0-0.3-0.1c-0.1,0-0.2-0.1-0.3-0.1
		c-0.1-0.1-0.3-0.1-0.4-0.1c-0.1,0-0.3-0.1-0.5-0.1c-0.3,0-0.5,0.1-0.6,0.2s-0.2,0.3-0.2,0.4c0,0.1,0,0.2,0.1,0.3s0.2,0.2,0.4,0.2
		c0.2,0.1,0.3,0.1,0.5,0.2c0.2,0.1,0.4,0.1,0.6,0.2c0.2,0.1,0.4,0.2,0.6,0.3s0.4,0.2,0.5,0.4c0.2,0.1,0.3,0.3,0.4,0.5
		s0.1,0.5,0.1,0.8c0,0.4-0.1,0.7-0.2,1c-0.1,0.3-0.3,0.6-0.6,0.8c-0.3,0.2-0.6,0.4-1,0.5c-0.4,0.1-0.8,0.2-1.3,0.2
		c-0.2,0-0.5,0-0.7-0.1c-0.2,0-0.5-0.1-0.7-0.2c-0.2-0.1-0.4-0.2-0.6-0.3c-0.2-0.1-0.4-0.2-0.5-0.4l0.5-0.8c0.1-0.1,0.1-0.2,0.2-0.2
		s0.2-0.1,0.3-0.1c0.1,0,0.2,0,0.3,0.1c0.1,0.1,0.2,0.1,0.3,0.2c0.1,0.1,0.3,0.1,0.4,0.2c0.2,0.1,0.4,0.1,0.6,0.1
		c0.2,0,0.3,0,0.4-0.1s0.2-0.1,0.3-0.1c0.1-0.1,0.1-0.1,0.2-0.2s0-0.2,0-0.2c0-0.1,0-0.3-0.1-0.4c-0.1-0.1-0.2-0.2-0.4-0.2
		c-0.2-0.1-0.3-0.1-0.5-0.2s-0.4-0.1-0.6-0.2c-0.2-0.1-0.4-0.2-0.6-0.3c-0.2-0.1-0.4-0.2-0.5-0.4s-0.3-0.4-0.4-0.6s-0.1-0.5-0.1-0.8
		c0-0.3,0.1-0.6,0.2-0.9c0.1-0.3,0.3-0.5,0.5-0.7c0.2-0.2,0.5-0.4,0.9-0.5s0.8-0.2,1.3-0.2c0.3,0,0.5,0,0.8,0.1s0.5,0.1,0.7,0.2
		s0.4,0.2,0.6,0.3s0.3,0.2,0.5,0.4L33.5,87.9z"/>
	<path d="M41.6,93.6c-0.2,0-0.4,0-0.5-0.1s-0.2-0.2-0.3-0.3l-0.2-0.4c-0.2,0.2-0.4,0.3-0.5,0.4c-0.2,0.1-0.3,0.2-0.5,0.3
		c-0.2,0.1-0.4,0.1-0.6,0.2c-0.2,0-0.4,0.1-0.7,0.1c-0.3,0-0.6,0-0.9-0.1c-0.3-0.1-0.5-0.2-0.7-0.4c-0.2-0.2-0.3-0.4-0.4-0.6
		c-0.1-0.2-0.2-0.5-0.2-0.9c0-0.3,0.1-0.5,0.2-0.8c0.1-0.3,0.4-0.5,0.7-0.7c0.3-0.2,0.8-0.4,1.3-0.6s1.2-0.2,2.1-0.2V89
		c0-0.4-0.1-0.7-0.3-0.9c-0.2-0.2-0.4-0.3-0.7-0.3c-0.3,0-0.5,0-0.6,0.1c-0.2,0.1-0.3,0.1-0.4,0.2c-0.1,0.1-0.3,0.1-0.4,0.2
		c-0.1,0.1-0.3,0.1-0.4,0.1c-0.1,0-0.3,0-0.4-0.1S37.1,88.1,37,88l-0.4-0.7c0.4-0.4,0.9-0.7,1.5-0.9c0.5-0.2,1.1-0.3,1.7-0.3
		c0.4,0,0.8,0.1,1.2,0.2s0.7,0.3,0.9,0.6c0.2,0.3,0.4,0.6,0.6,0.9c0.1,0.3,0.2,0.7,0.2,1.1v4.5H41.6z M39.2,92.2
		c0.3,0,0.5,0,0.7-0.1c0.2-0.1,0.4-0.3,0.6-0.5v-1c-0.4,0-0.8,0-1.1,0.1c-0.3,0.1-0.5,0.1-0.7,0.2c-0.2,0.1-0.3,0.2-0.3,0.3
		c-0.1,0.1-0.1,0.2-0.1,0.4c0,0.2,0.1,0.4,0.2,0.5C38.7,92.2,38.9,92.2,39.2,92.2z"/>
	<path d="M58.6,93.6h-2.4v-4.3h-4.1v4.3h-2.4V83.4h2.4v4.3h4.1v-4.3h2.4V93.6z"/>
	<path d="M64.2,84.3c0,0.2,0,0.3-0.1,0.5c-0.1,0.2-0.2,0.3-0.3,0.4c-0.1,0.1-0.3,0.2-0.4,0.3c-0.2,0.1-0.3,0.1-0.5,0.1
		c-0.2,0-0.3,0-0.5-0.1c-0.2-0.1-0.3-0.2-0.4-0.3s-0.2-0.2-0.3-0.4c-0.1-0.2-0.1-0.3-0.1-0.5c0-0.2,0-0.3,0.1-0.5s0.2-0.3,0.3-0.4
		c0.1-0.1,0.3-0.2,0.4-0.3s0.3-0.1,0.5-0.1c0.2,0,0.4,0,0.5,0.1s0.3,0.2,0.4,0.3c0.1,0.1,0.2,0.3,0.3,0.4
		C64.1,84,64.2,84.1,64.2,84.3z M63.9,86.3v7.3h-2.2v-7.3H63.9z"/>
	<path d="M67.1,93.6v-7.3h1.3c0.1,0,0.2,0,0.3,0c0.1,0,0.1,0,0.2,0.1c0,0,0.1,0.1,0.1,0.2s0,0.1,0.1,0.2l0.1,0.7
		c0.3-0.4,0.6-0.7,0.9-1c0.3-0.2,0.7-0.4,1.1-0.4c0.3,0,0.6,0.1,0.8,0.2L71.6,88c0,0.1-0.1,0.2-0.1,0.2c-0.1,0-0.1,0.1-0.2,0.1
		c-0.1,0-0.2,0-0.3,0c-0.1,0-0.2,0-0.4,0c-0.6,0-1,0.3-1.3,0.9v4.5H67.1z"/>
	<path d="M79.1,93.6c-0.2,0-0.4,0-0.5-0.1c-0.1-0.1-0.2-0.2-0.3-0.3l-0.2-0.4c-0.2,0.2-0.4,0.3-0.5,0.4c-0.2,0.1-0.3,0.2-0.5,0.3
		c-0.2,0.1-0.4,0.1-0.6,0.2c-0.2,0-0.4,0.1-0.7,0.1c-0.3,0-0.6,0-0.9-0.1c-0.3-0.1-0.5-0.2-0.7-0.4c-0.2-0.2-0.3-0.4-0.4-0.6
		c-0.1-0.2-0.2-0.5-0.2-0.9c0-0.3,0.1-0.5,0.2-0.8c0.1-0.3,0.4-0.5,0.7-0.7c0.3-0.2,0.8-0.4,1.3-0.6s1.2-0.2,2.1-0.2V89
		c0-0.4-0.1-0.7-0.3-0.9c-0.2-0.2-0.4-0.3-0.7-0.3c-0.3,0-0.5,0-0.6,0.1C76.2,88,76,88,75.9,88.1c-0.1,0.1-0.3,0.1-0.4,0.2
		c-0.1,0.1-0.3,0.1-0.4,0.1c-0.1,0-0.3,0-0.4-0.1c-0.1-0.1-0.2-0.2-0.2-0.3l-0.4-0.7c0.4-0.4,0.9-0.7,1.5-0.9
		c0.5-0.2,1.1-0.3,1.7-0.3c0.4,0,0.8,0.1,1.2,0.2s0.7,0.3,0.9,0.6c0.2,0.3,0.4,0.6,0.6,0.9c0.1,0.3,0.2,0.7,0.2,1.1v4.5H79.1z
		 M76.6,92.2c0.3,0,0.5,0,0.7-0.1c0.2-0.1,0.4-0.3,0.6-0.5v-1c-0.4,0-0.8,0-1.1,0.1s-0.5,0.1-0.7,0.2s-0.3,0.2-0.3,0.3
		c-0.1,0.1-0.1,0.2-0.1,0.4c0,0.2,0.1,0.4,0.2,0.5C76.2,92.2,76.4,92.2,76.6,92.2z"/>
	<path d="M85.6,93.7c-0.3,0-0.6-0.1-0.9-0.2c-0.3-0.1-0.5-0.2-0.7-0.4c-0.2-0.2-0.3-0.4-0.4-0.7c-0.1-0.3-0.1-0.6-0.1-0.9v-3.8h-0.6
		c-0.1,0-0.2,0-0.3-0.1c-0.1-0.1-0.1-0.2-0.1-0.3v-0.8l1.2-0.2l0.4-1.8c0.1-0.2,0.2-0.3,0.5-0.3h1.1v2.1h1.8v1.5h-1.8v3.6
		c0,0.2,0,0.3,0.1,0.4c0.1,0.1,0.2,0.2,0.4,0.2c0.1,0,0.1,0,0.2,0s0.1,0,0.1-0.1c0,0,0.1,0,0.1-0.1c0,0,0.1,0,0.1,0
		c0.1,0,0.1,0,0.2,0c0,0,0.1,0.1,0.1,0.1l0.7,1c-0.3,0.2-0.6,0.4-0.9,0.5C86.3,93.6,86,93.7,85.6,93.7z"/>
	<path d="M95.1,93.6c-0.2,0-0.4,0-0.5-0.1c-0.1-0.1-0.2-0.2-0.3-0.3l-0.2-0.4c-0.2,0.2-0.4,0.3-0.5,0.4c-0.2,0.1-0.3,0.2-0.5,0.3
		c-0.2,0.1-0.4,0.1-0.6,0.2c-0.2,0-0.4,0.1-0.7,0.1c-0.3,0-0.6,0-0.9-0.1c-0.3-0.1-0.5-0.2-0.7-0.4c-0.2-0.2-0.3-0.4-0.4-0.6
		c-0.1-0.2-0.2-0.5-0.2-0.9c0-0.3,0.1-0.5,0.2-0.8c0.1-0.3,0.4-0.5,0.7-0.7c0.3-0.2,0.8-0.4,1.3-0.6s1.2-0.2,2.1-0.2V89
		c0-0.4-0.1-0.7-0.3-0.9c-0.2-0.2-0.4-0.3-0.7-0.3c-0.3,0-0.5,0-0.6,0.1C92.1,88,92,88,91.9,88.1c-0.1,0.1-0.3,0.1-0.4,0.2
		c-0.1,0.1-0.3,0.1-0.4,0.1c-0.1,0-0.3,0-0.4-0.1c-0.1-0.1-0.2-0.2-0.2-0.3L90,87.3c0.4-0.4,0.9-0.7,1.5-0.9
		c0.5-0.2,1.1-0.3,1.7-0.3c0.4,0,0.8,0.1,1.2,0.2s0.7,0.3,0.9,0.6c0.2,0.3,0.4,0.6,0.6,0.9C96,88.2,96,88.6,96,89v4.5H95.1z
		 M92.6,92.2c0.3,0,0.5,0,0.7-0.1c0.2-0.1,0.4-0.3,0.6-0.5v-1c-0.4,0-0.8,0-1.1,0.1s-0.5,0.1-0.7,0.2s-0.3,0.2-0.3,0.3
		c-0.1,0.1-0.1,0.2-0.1,0.4c0,0.2,0.1,0.4,0.2,0.5C92.1,92.2,92.3,92.2,92.6,92.2z"/>
</g>
</svg>
