<?xml version="1.0" encoding="utf-8"?>
<!-- Generator: Adobe Illustrator 23.0.2, SVG Export Plug-In . SVG Version: 6.00 Build 0)  -->
<svg version="1.1" id="Layer_1" xmlns="http://www.w3.org/2000/svg" xmlns:xlink="http://www.w3.org/1999/xlink" x="0px" y="0px"
	 viewBox="0 0 100 100" style="enable-background:new 0 0 100 100;" xml:space="preserve">
<style type="text/css">
	.st0{fill:#FFFFFF;}
	.st1{display:none;fill:#FFFFFF;}
</style>
<g>
	<path class="st0" d="M20.3,44.7c-4.7,8.7-5.9,19.6-1.6,28.5c4.1,8.3,12.4,13.9,21.3,16.7c8.8,2.8,17.4,3.1,26.6,3.3l-2.4,1.6
		c-20.5,4.9-44.4-1.4-51.9-15.4c-7.1-13.5-1.2-27.8,10.3-37.9L20.3,44.7z"/>
	<g>
		<path class="st0" d="M19.7,44.3c-6.3,12.4-6,27.5,4.6,37.5C35.7,92.5,51.9,93.6,66.7,94c-0.1-0.5-0.3-0.9-0.4-1.4
			c-5.9,3.8-14.7,3.4-21.5,2.9c-8.1-0.7-16.4-2.9-23.2-7.4c-7.4-4.9-11.9-12.8-11.6-21.8c0.4-9.7,6.2-18,13.1-24.3
			c-0.4-0.3-0.8-0.6-1.2-0.9C21.3,42.1,20.5,43.2,19.7,44.3c-0.6,0.8,0.7,1.5,1.3,0.8c0.8-1.1,1.6-2.1,2.4-3.2
			c0.5-0.7-0.6-1.5-1.2-0.9C15.1,47.3,9.3,55.7,8.6,65.5c-0.6,8.7,3.3,17,10.1,22.3c6.6,5.1,15,7.8,23.2,8.8
			c7.8,1,18.3,1.6,25.2-2.8c0.6-0.4,0.4-1.4-0.4-1.4c-13.1-0.3-27.1-1.1-38.1-9C16,74.3,14.2,58.4,21,45
			C21.4,44.2,20.1,43.4,19.7,44.3z"/>
	</g>
</g>
<g>
	<path class="st1" d="M23.1,77.7c-7.7-12.7-8.8-25.8-1-37c0.2-0.2-0.1-0.5-0.4-0.3c-13,8.8-10.6,31.7-3,43.1
		C29,99,51.6,101.2,64.7,96.1c4.3-1.7,7.8-4.2,10.5-7.7c-0.7,0.5-1.4,1-2.1,1.4C55.9,100.3,33.5,94.9,23.1,77.7z"/>
	<path class="st0" d="M90.7,58.7c0-12.3-1.7-22.9-5.1-32.4c-1.1-3-2.3-5.9-3.7-8.6c-2.2-4.4-4.8-7.6-8-9.8c-5-4.1-11.6-6.6-18.9-6.6
		c-1.2,0-2.4,0.1-3.5,0.2c0,0,0,0,0,0C46,2.1,40.9,4.2,36.9,7.3c-2.9,1.9-5.3,4.4-7.7,7.4c-0.2,0.2-0.4,0.4-0.6,0.7c0,0,0,0,0,0
		c-4,6.1-10.4,10.5-17.8,12c0.4,0.2,0.9,0.4,1.3,0.7c0,0,0,0,0,0c1.8,0.8,4.2,1.6,6.5,2.2c0,0,0,0,0,0c1.8,0.4,3.7,0.6,5.6,0.6
		c0.6,0,1.3-0.1,1.9-0.1c0-0.3,0-1,0-1.1c0-9.6,7.9-17.5,17.6-17.3c2.2,0,4.4,0.5,6.4,1.3c5,2.1,8.9,6.5,10.2,11.9
		c0.3,1.1,0.4,2.1,0.5,3.3c0,0,0,0,0,0c0.4,3.1,0.6,6.2,0.6,9.3c0,6.5-0.9,12.8-2.4,18.7c-1.2,4.7-2,9.4-2.1,14.3c0,0,0,0.1,0,0.1
		c0,1.7,0,3.3,0,4.8C57.2,97.5,73.3,99,94.7,99.3c0.3,0,0.6,0,1,0c0.2-0.3,0.2-0.4,0.3-0.7C87,88.6,90.7,74.3,90.7,58.7z"/>
	<circle class="st0" cx="40.6" cy="27.4" r="4.1"/>
</g>
</svg>
