<?xml version="1.0" encoding="utf-8"?>
<!-- Generator: Adobe Illustrator 23.0.1, SVG Export Plug-In . SVG Version: 6.00 Build 0)  -->
<svg version="1.1" id="Layer_1" xmlns="http://www.w3.org/2000/svg" xmlns:xlink="http://www.w3.org/1999/xlink" x="0px" y="0px"
	 viewBox="0 0 100 100" style="enable-background:new 0 0 100 100;" xml:space="preserve">
<style type="text/css">
	.st0{fill:#575754;}
</style>
<g>
	<path class="st0" d="M97.8,73.9V27.1c0-2.3-0.8-4.4-2-6.2L80.5,35.8L63,52.9L80.5,70l12.4,12.8C95.8,80.9,97.8,77.6,97.8,73.9z"/>
</g>
<path class="st0" d="M3,73.9V27.1c0-2.3,0.8-4.4,2-6.2l15.2,14.9l17.5,17.1l-17.5,17L7.8,82.8C4.9,80.9,3,77.6,3,73.9z"/>
<g>
	<polygon class="st0" points="56.5,52.3 50.2,46 44,52.3 50.2,58.4 	"/>
	<path class="st0" d="M60.7,56.6l-8.3,8.1c-0.6,0.6-1.3,0.8-2.1,0.8s-1.5-0.3-2.1-0.8l-8.3-8.1L31.6,65L13,84h37.2h37.2L68.9,65
		L60.7,56.6z"/>
</g>
<path class="st0" d="M50.2,59.5l22.9-22.8l18.7-18.6c-1.4-0.7-2.9-1.1-4.6-1.1H12.7c-1.5,0-2.9,0.3-4.2,0.9l18.9,18.8L50.2,59.5z"/>
</svg>
