<?xml version="1.0" encoding="utf-8"?>
<!-- Generator: Adobe Illustrator 23.0.1, SVG Export Plug-In . SVG Version: 6.00 Build 0)  -->
<svg version="1.1" id="Layer_1" xmlns="http://www.w3.org/2000/svg" xmlns:xlink="http://www.w3.org/1999/xlink" x="0px" y="0px"
	 viewBox="0 0 100 100" style="enable-background:new 0 0 100 100;" xml:space="preserve">
<style type="text/css">
	.st0{fill:#575754;}
</style>
<image style="display:none;overflow:visible;enable-background:new    ;" width="866" height="576" xlink:href="../../../../Screen Shot 2019-01-21 at 4.47.41 PM.png"  transform="matrix(0.1649 0 0 0.1649 -21.4149 2.5)">
</image>
<path class="st0" d="M89.5,31.9c2.6-9-2.7-22.9-2.7-22.9S72.9,11.4,63,19.9c-4.1-0.6-8.5-0.9-13-0.9c-4.8,0-9.5,0.4-13.9,1.1
	C26.1,11.4,12,9,12,9S6.6,23.3,9.4,32.3C3.5,38.2,0.2,46.1,1,56c1.3,16,8,24,15,29c9.5,6.8,19.2,6,34,6c15,0,20,0,29-4
	c10.7-4.8,18.4-16,19-31C98.4,45.7,95.2,37.8,89.5,31.9z M85,66c-1,10-6,20-35,20c-28,0-34.6-8-36-19c-1-8,4.5-16.7,12-18
	c6-1,13.6,0.1,20.5,0.5c2.6,0.2,5,0,7.5-0.1c7.9-0.3,12-1.3,18-0.4C79,50,86,56,85,66z"/>
<ellipse class="st0" cx="33" cy="66.5" rx="7" ry="9.5"/>
<ellipse class="st0" cx="66" cy="66.5" rx="7" ry="9.5"/>
</svg>
