<?xml version="1.0" encoding="utf-8"?>
<!-- Generator: Adobe Illustrator 23.0.1, SVG Export Plug-In . SVG Version: 6.00 Build 0)  -->
<svg version="1.1" id="Layer_1" xmlns="http://www.w3.org/2000/svg" xmlns:xlink="http://www.w3.org/1999/xlink" x="0px" y="0px"
	 viewBox="0 0 99.5 99.5" style="enable-background:new 0 0 99.5 99.5;" xml:space="preserve">
<style type="text/css">
	.st0{fill:#575754;}
</style>
<path class="st0" d="M99.1,29.3c-0.2-5.3-1.1-8.9-2.3-12c-1.3-3.3-3.2-6.3-5.7-8.8c-2.5-2.5-5.5-4.5-8.8-5.7
	c-3.2-1.2-6.8-2.1-12-2.3c-5.3-0.3-7-0.3-20.5-0.3S34.6,0.1,29.3,0.3c-5.3,0.2-8.9,1.1-12,2.3c-3.3,1.3-6.3,3.2-8.8,5.7
	c-2.5,2.5-4.5,5.5-5.7,8.8c-1.2,3.2-2.1,6.8-2.3,12c-0.3,5.3-0.3,7-0.3,20.5s0.1,15.2,0.3,20.5c0.2,5.3,1.1,8.9,2.3,12
	c1.2,3.3,3.2,6.3,5.7,8.8c2.5,2.5,5.5,4.5,8.8,5.7c3.2,1.2,6.8,2.1,12,2.3c5.3,0.2,7,0.3,20.5,0.3s15.2-0.1,20.5-0.3
	c5.3-0.2,8.9-1.1,12-2.3c6.7-2.6,12-7.9,14.5-14.5c1.2-3.2,2.1-6.8,2.3-12c0.2-5.3,0.3-7,0.3-20.5C99.4,36.2,99.4,34.6,99.1,29.3z
	 M90.2,69.8c-0.2,4.9-1,7.5-1.7,9.2c-1.7,4.3-5.1,7.8-9.4,9.4c-1.7,0.7-4.4,1.5-9.2,1.7c-5.2,0.2-6.8,0.3-20.1,0.3
	c-13.3,0-14.8-0.1-20.1-0.3c-4.9-0.2-7.5-1-9.2-1.7c-2.2-0.8-4.1-2.1-5.7-3.7c-1.6-1.6-2.9-3.6-3.7-5.7c-0.7-1.7-1.5-4.4-1.7-9.2
	C9.1,64.5,9.1,63,9.1,49.7c0-13.3,0.1-14.8,0.3-20.1c0.2-4.9,1-7.5,1.7-9.2c0.8-2.2,2.1-4.1,3.7-5.7c1.6-1.6,3.6-2.9,5.7-3.7
	c1.7-0.7,4.4-1.5,9.2-1.7C35,9.1,36.5,9,49.8,9l0,0c13.3,0,14.8,0.1,20.1,0.3c4.9,0.2,7.5,1,9.2,1.7c2.2,0.8,4.1,2.1,5.7,3.7
	c1.6,1.6,2.9,3.6,3.7,5.7c0.7,1.7,1.5,4.4,1.7,9.2c0.2,5.2,0.3,6.8,0.3,20.1C90.5,63,90.4,64.6,90.2,69.8z"/>
<path class="st0" d="M49.8,24.2c-14.1,0-25.5,11.4-25.5,25.5s11.4,25.5,25.5,25.5s25.5-11.4,25.5-25.5S63.9,24.2,49.8,24.2z
	 M49.8,66.3c-9.1,0-16.5-7.4-16.5-16.5s7.4-16.5,16.5-16.5s16.5,7.4,16.5,16.5S58.9,66.3,49.8,66.3z"/>
<path class="st0" d="M82.2,23.2c0,3.3-2.7,6-6,6c-3.3,0-6-2.7-6-6c0-3.3,2.7-6,6-6C79.6,17.2,82.2,19.9,82.2,23.2z"/>
</svg>
