<?xml version="1.0" encoding="utf-8"?>
<!-- Generator: Adobe Illustrator 23.0.4, SVG Export Plug-In . SVG Version: 6.00 Build 0)  -->
<svg version="1.1" id="Layer_1" xmlns="http://www.w3.org/2000/svg" xmlns:xlink="http://www.w3.org/1999/xlink" x="0px" y="0px"
	 viewBox="0 0 300 100" style="enable-background:new 0 0 300 100;" xml:space="preserve">
<style type="text/css">
	.st0{fill:none;stroke:#BCA068;stroke-width:5;stroke-miterlimit:10;}
	.st1{fill:#F9B7B7;}
	.st2{fill:#52BA47;}
</style>
<g>
	<g>
		<path class="st0" d="M70.5,82.8V58.4c6,0.4,12-2.5,15.1-8.1c4.3-7.7,1.6-17.4-6.1-21.7c-2.3-1.3-4.8-1.9-7.3-2
			c0-1.2-0.2-2.5-0.6-3.7c-2.4-8.5-11.2-13.4-19.8-11c-2.6,0.7-4.8,2-6.6,3.7c-0.9-0.8-1.9-1.6-3.1-2.2c-7.7-4.3-17.5-1.6-21.8,6.1
			c-1.3,2.3-2,4.8-2,7.2c-1.2,0-2.5,0.2-3.8,0.6C6.1,29.6,1.1,38.4,3.5,46.9C5.6,54.3,12.6,59,20,58.5v24.3"/>
		<path class="st1" d="M46.8,31.5l13.6,13.3c3.6,3.6,3.9,9.4,0.3,13.1c-3.6,3.7-9.6,3.8-13.3,0.1l-2.1-2l-1.9,1.8
			c-3.6,3.6-9.6,3.8-13.3,0.3c-3.8-3.6-3.8-9.5-0.1-13.1l13.8-13.6C44.6,30.6,46,30.6,46.8,31.5z"/>
		<ellipse class="st1" cx="16.8" cy="43.3" rx="6.8" ry="7.2"/>
		<ellipse class="st1" cx="33.3" cy="25.4" rx="6.8" ry="7.2"/>
		<ellipse class="st1" cx="57.5" cy="25.3" rx="6.8" ry="7.2"/>
		<ellipse class="st1" cx="74" cy="43.1" rx="6.8" ry="7.2"/>
	</g>
</g>
<g>
	<path class="st2" d="M128.8,52.5c0,1.5-0.2,2.9-0.7,4.1c-0.5,1.2-1.1,2.2-1.9,3.1c-0.8,0.9-1.7,1.6-2.8,2.2
		c-1.1,0.6-2.2,1.1-3.4,1.5c-1.2,0.4-2.5,0.7-3.8,0.8c-1.3,0.2-2.6,0.3-3.8,0.3v11h-11c0-3.6,0-7.2,0-10.8c0-3.6,0-7.2,0.1-10.8
		c0-1.9,0-3.8,0-5.8c0-1.9,0-3.9,0.1-5.8c2-0.6,4-1,6-1.3c2-0.3,4.1-0.4,6.2-0.4c1.2,0,2.4,0.1,3.6,0.3c1.2,0.2,2.4,0.5,3.5,0.9
		c1.1,0.4,2.1,1,3.1,1.6c1,0.6,1.8,1.4,2.5,2.3c0.7,0.9,1.2,1.9,1.6,3C128.6,49.9,128.8,51.1,128.8,52.5z M118.3,53.3
		c0-1-0.3-1.8-0.9-2.4c-0.6-0.6-1.4-0.9-2.4-0.9c-0.3,0-0.7,0-1,0.1s-0.7,0.1-1,0.2l-0.3,6.9c0.2,0,0.4,0,0.6,0c0.2,0,0.4,0,0.6,0
		c0.6,0,1.1-0.1,1.6-0.3c0.5-0.2,1-0.5,1.4-0.8c0.4-0.4,0.7-0.8,1-1.3S118.3,53.9,118.3,53.3z"/>
	<path class="st2" d="M157.3,73.2l-11.7,1.5l-1.4-5.3h-5.4l-1.2,5.3l-12-1.2l9.4-31.4l13.1-0.7L157.3,73.2z M143.4,62.1l-1.8-8.2
		l-1.7,8.2H143.4z"/>
	<path class="st2" d="M198.8,42.5l-5.5,31.8l-13.4,0.3l-2.9-16l-2.9,14.8l-13.4,0.5l-5.6-30.3l11.7-1l2.4,18.6l3.2-17.2h9.2
		l3.7,17.5l1.9-19.8L198.8,42.5z"/>
	<path class="st2" d="M227.6,52.5c0,1.5-0.2,2.9-0.7,4.1c-0.5,1.2-1.1,2.2-1.9,3.1c-0.8,0.9-1.7,1.6-2.8,2.2
		c-1.1,0.6-2.2,1.1-3.4,1.5c-1.2,0.4-2.5,0.7-3.8,0.8c-1.3,0.2-2.6,0.3-3.8,0.3v11h-11c0-3.6,0-7.2,0-10.8c0-3.6,0-7.2,0.1-10.8
		c0-1.9,0-3.8,0-5.8c0-1.9,0-3.9,0.1-5.8c2-0.6,4-1,6-1.3c2-0.3,4.1-0.4,6.2-0.4c1.2,0,2.4,0.1,3.6,0.3c1.2,0.2,2.4,0.5,3.5,0.9
		c1.1,0.4,2.1,1,3.1,1.6c1,0.6,1.8,1.4,2.5,2.3c0.7,0.9,1.2,1.9,1.6,3C227.4,49.9,227.6,51.1,227.6,52.5z M217.1,53.3
		c0-1-0.3-1.8-0.9-2.4c-0.6-0.6-1.4-0.9-2.4-0.9c-0.3,0-0.7,0-1,0.1c-0.4,0.1-0.7,0.1-1,0.2l-0.3,6.9c0.2,0,0.4,0,0.6,0s0.4,0,0.6,0
		c0.6,0,1.1-0.1,1.6-0.3c0.5-0.2,1-0.5,1.4-0.8c0.4-0.4,0.7-0.8,1-1.3C217,54.5,217.1,53.9,217.1,53.3z"/>
	<path class="st2" d="M256.1,73.2l-11.7,1.5l-1.4-5.3h-5.4l-1.2,5.3l-12-1.2l9.4-31.4l13.1-0.7L256.1,73.2z M242.2,62.1l-1.8-8.2
		l-1.7,8.2H242.2z"/>
	<path class="st2" d="M297.6,42.5l-5.5,31.8l-13.4,0.3l-2.9-16l-2.9,14.8l-13.4,0.5l-5.6-30.3l11.7-1L268,61l3.2-17.2h9.2l3.7,17.5
		l1.9-19.8L297.6,42.5z"/>
</g>
</svg>
